<svg id="svg" version="1.1" xmlns="http://www.w3.org/2000/svg" xmlns:xlink="http://www.w3.org/1999/xlink" width="400" height="400" viewBox="0, 0, 400,400"><g id="svgg"><path id="path0" d="M67.200 63.959 C 67.200 64.270,79.569 76.622,110.526 107.226 L 118.453 115.062 200.097 114.959 L 281.741 114.857 306.870 89.730 C 320.692 75.910,332.000 64.377,332.000 64.101 C 332.000 63.701,305.421 63.600,199.600 63.600 C 121.732 63.600,67.200 63.748,67.200 63.959 M324.200 88.309 C 315.840 96.616,304.545 107.787,299.100 113.135 L 289.200 122.857 289.200 200.562 L 289.200 278.267 313.972 303.034 C 327.597 316.655,338.982 327.800,339.272 327.800 C 339.870 327.800,340.248 110.011,339.693 85.903 L 339.400 73.207 324.200 88.309 M60.257 74.196 C 59.890 75.153,59.950 327.302,60.318 327.881 C 60.519 328.196,69.216 319.809,85.712 303.391 L 110.800 278.421 110.800 200.961 L 110.800 123.500 90.602 103.450 C 79.492 92.423,68.178 81.178,65.459 78.463 C 61.591 74.601,60.458 73.672,60.257 74.196 M123.100 127.062 C 121.956 127.384,122.019 272.241,123.165 273.656 L 123.929 274.600 200.765 274.711 L 277.600 274.822 277.634 269.511 C 277.772 247.666,277.542 127.408,277.361 127.228 C 277.083 126.950,124.085 126.785,123.100 127.062 M126.600 286.782 L 117.800 287.000 113.603 291.400 C 109.286 295.926,103.606 301.617,81.300 323.762 C 74.205 330.806,68.400 336.737,68.400 336.942 C 68.400 337.159,69.424 337.207,70.859 337.057 C 72.211 336.916,131.251 336.800,202.059 336.800 C 308.485 336.800,330.800 336.708,330.800 336.272 C 330.800 335.981,319.642 324.641,306.004 311.072 L 281.208 286.400 208.304 286.482 C 168.207 286.527,131.440 286.662,126.600 286.782 " stroke="none" fill="#eb2c24" fill-rule="evenodd"></path><path id="path1" d="M0.000 200.000 L 0.000 400.000 200.000 400.000 L 400.000 400.000 400.000 200.000 L 400.000 0.000 200.000 0.000 L 0.000 0.000 0.000 200.000 M333.874 63.423 C 333.952 63.655,322.222 75.622,307.809 90.015 L 281.603 116.185 199.962 116.239 L 118.321 116.292 103.218 101.246 C 94.911 92.971,82.941 81.127,76.617 74.928 C 70.182 68.619,65.235 63.467,65.383 63.227 C 65.755 62.626,333.674 62.821,333.874 63.423 M340.547 90.925 C 341.604 173.608,341.184 329.200,339.903 329.200 C 338.874 329.200,337.993 328.353,311.265 301.634 L 288.291 278.668 288.478 200.390 L 288.665 122.112 292.344 118.556 C 294.367 116.600,297.502 113.489,299.311 111.642 C 301.120 109.795,303.811 107.095,305.292 105.642 C 306.773 104.189,315.044 95.955,323.673 87.344 C 332.302 78.733,339.575 71.769,339.834 71.868 C 340.183 72.002,340.369 76.987,340.547 90.925 M86.079 97.700 L 111.495 123.000 111.747 145.366 C 111.886 157.667,112.000 192.669,112.000 223.148 L 112.000 278.565 86.308 304.094 C 71.167 319.139,60.367 329.575,60.008 329.506 C 58.575 329.231,58.551 72.400,59.984 72.400 C 60.357 72.400,72.100 83.785,86.079 97.700 M277.972 125.974 C 278.608 126.377,278.915 274.418,278.281 275.053 C 277.484 275.850,122.739 275.405,122.154 274.604 C 121.196 273.294,121.340 126.591,122.300 126.032 C 123.201 125.507,277.143 125.450,277.972 125.974 M307.022 310.878 C 320.980 324.781,332.400 336.367,332.400 336.624 C 332.400 336.979,314.298 337.160,257.700 337.372 C 216.615 337.525,157.083 337.807,125.407 337.997 C 85.555 338.237,67.660 338.215,67.312 337.927 C 66.516 337.267,67.641 335.988,78.267 325.471 C 94.637 309.270,109.579 294.341,113.913 289.856 L 118.026 285.600 199.835 285.600 L 281.644 285.600 307.022 310.878 " stroke="none" fill="#fbfbfb" fill-rule="evenodd"></path><path id="path2" d="M70.500 63.098 C 72.865 63.169,76.735 63.169,79.100 63.098 C 81.465 63.028,79.530 62.970,74.800 62.970 C 70.070 62.970,68.135 63.028,70.500 63.098 M86.300 63.093 C 87.235 63.177,88.765 63.177,89.700 63.093 C 90.635 63.009,89.870 62.940,88.000 62.940 C 86.130 62.940,85.365 63.009,86.300 63.093 M95.107 63.090 C 95.826 63.179,96.906 63.177,97.507 63.086 C 98.108 62.995,97.520 62.922,96.200 62.924 C 94.880 62.926,94.388 63.001,95.107 63.090 M102.713 63.095 C 103.876 63.176,105.676 63.176,106.713 63.093 C 107.751 63.011,106.800 62.945,104.600 62.946 C 102.400 62.947,101.551 63.014,102.713 63.095 M111.107 63.090 C 111.826 63.179,112.906 63.177,113.507 63.086 C 114.108 62.995,113.520 62.922,112.200 62.924 C 110.880 62.926,110.388 63.001,111.107 63.090 M118.300 63.093 C 119.235 63.177,120.765 63.177,121.700 63.093 C 122.635 63.009,121.870 62.940,120.000 62.940 C 118.130 62.940,117.365 63.009,118.300 63.093 M124.900 63.091 C 125.725 63.178,127.075 63.178,127.900 63.091 C 128.725 63.005,128.050 62.934,126.400 62.934 C 124.750 62.934,124.075 63.005,124.900 63.091 M131.100 63.093 C 132.035 63.177,133.565 63.177,134.500 63.093 C 135.435 63.009,134.670 62.940,132.800 62.940 C 130.930 62.940,130.165 63.009,131.100 63.093 M144.323 63.099 C 147.031 63.168,151.351 63.168,153.923 63.099 C 156.495 63.029,154.280 62.972,149.000 62.973 C 143.720 62.973,141.615 63.030,144.323 63.099 M160.700 63.089 C 161.415 63.178,162.585 63.178,163.300 63.089 C 164.015 63.001,163.430 62.928,162.000 62.928 C 160.570 62.928,159.985 63.001,160.700 63.089 M168.700 63.095 C 169.855 63.176,171.745 63.176,172.900 63.095 C 174.055 63.014,173.110 62.948,170.800 62.948 C 168.490 62.948,167.545 63.014,168.700 63.095 M179.100 63.093 C 180.035 63.177,181.565 63.177,182.500 63.093 C 183.435 63.009,182.670 62.940,180.800 62.940 C 178.930 62.940,178.165 63.009,179.100 63.093 M187.091 63.089 C 187.801 63.177,189.061 63.179,189.891 63.092 C 190.721 63.005,190.140 62.933,188.600 62.931 C 187.060 62.929,186.381 63.000,187.091 63.089 M193.900 63.096 C 195.275 63.174,197.525 63.174,198.900 63.096 C 200.275 63.018,199.150 62.954,196.400 62.954 C 193.650 62.954,192.525 63.018,193.900 63.096 M205.718 63.098 C 207.433 63.173,210.133 63.172,211.718 63.097 C 213.303 63.021,211.900 62.959,208.600 62.960 C 205.300 62.961,204.003 63.022,205.718 63.098 M215.900 63.082 C 216.395 63.178,217.205 63.178,217.700 63.082 C 218.195 62.987,217.790 62.909,216.800 62.909 C 215.810 62.909,215.405 62.987,215.900 63.082 M220.100 63.091 C 220.925 63.178,222.275 63.178,223.100 63.091 C 223.925 63.005,223.250 62.934,221.600 62.934 C 219.950 62.934,219.275 63.005,220.100 63.091 M228.316 63.097 C 229.699 63.175,231.859 63.174,233.116 63.095 C 234.372 63.016,233.240 62.952,230.600 62.953 C 227.960 62.953,226.932 63.018,228.316 63.097 M236.700 63.082 C 237.195 63.178,238.005 63.178,238.500 63.082 C 238.995 62.987,238.590 62.909,237.600 62.909 C 236.610 62.909,236.205 62.987,236.700 63.082 M243.321 63.098 C 245.477 63.171,248.897 63.170,250.921 63.098 C 252.944 63.025,251.180 62.966,247.000 62.967 C 242.820 62.967,241.164 63.026,243.321 63.098 M257.107 63.090 C 257.826 63.179,258.906 63.177,259.507 63.086 C 260.108 62.995,259.520 62.922,258.200 62.924 C 256.880 62.926,256.388 63.001,257.107 63.090 M264.900 63.098 C 267.045 63.170,270.555 63.170,272.700 63.098 C 274.845 63.026,273.090 62.967,268.800 62.967 C 264.510 62.967,262.755 63.026,264.900 63.098 M277.300 63.076 C 277.685 63.176,278.315 63.176,278.700 63.076 C 279.085 62.975,278.770 62.893,278.000 62.893 C 277.230 62.893,276.915 62.975,277.300 63.076 M282.700 63.098 C 284.515 63.172,287.485 63.172,289.300 63.098 C 291.115 63.023,289.630 62.963,286.000 62.963 C 282.370 62.963,280.885 63.023,282.700 63.098 M296.721 63.099 C 298.988 63.170,302.588 63.170,304.721 63.098 C 306.855 63.026,305.000 62.968,300.600 62.968 C 296.200 62.968,294.455 63.027,296.721 63.099 M311.107 63.090 C 311.826 63.179,312.906 63.177,313.507 63.086 C 314.108 62.995,313.520 62.922,312.200 62.924 C 310.880 62.926,310.388 63.001,311.107 63.090 M316.700 63.089 C 317.415 63.178,318.585 63.178,319.300 63.089 C 320.015 63.001,319.430 62.928,318.000 62.928 C 316.570 62.928,315.985 63.001,316.700 63.089 M322.700 63.089 C 323.415 63.178,324.585 63.178,325.300 63.089 C 326.015 63.001,325.430 62.928,324.000 62.928 C 322.570 62.928,321.985 63.001,322.700 63.089 M328.311 63.093 C 329.251 63.178,330.691 63.177,331.511 63.091 C 332.330 63.005,331.560 62.936,329.800 62.937 C 328.040 62.939,327.370 63.009,328.311 63.093 M340.171 81.600 C 340.171 86.550,340.228 88.575,340.299 86.100 C 340.369 83.625,340.369 79.575,340.299 77.100 C 340.228 74.625,340.171 76.650,340.171 81.600 M325.195 86.300 L 319.000 92.600 325.300 86.405 C 328.765 82.998,331.600 80.163,331.600 80.105 C 331.600 79.819,330.951 80.447,325.195 86.300 M315.191 96.300 L 311.800 99.800 315.300 96.409 C 317.225 94.544,318.800 92.969,318.800 92.909 C 318.800 92.618,318.341 93.049,315.191 96.300 M111.800 109.600 C 113.550 111.360,115.071 112.800,115.181 112.800 C 115.291 112.800,113.950 111.360,112.200 109.600 C 110.450 107.840,108.929 106.400,108.819 106.400 C 108.709 106.400,110.050 107.840,111.800 109.600 M297.578 113.900 L 296.200 115.400 297.700 114.022 C 299.096 112.738,299.384 112.400,299.078 112.400 C 299.012 112.400,298.337 113.075,297.578 113.900 M136.527 115.900 C 141.547 115.963,149.647 115.963,154.527 115.900 C 159.407 115.836,155.300 115.784,145.400 115.784 C 135.500 115.784,131.507 115.836,136.527 115.900 M189.100 115.900 C 194.655 115.962,203.745 115.962,209.300 115.900 C 214.855 115.837,210.310 115.786,199.200 115.786 C 188.090 115.786,183.545 115.837,189.100 115.900 M252.918 115.898 C 254.633 115.973,257.333 115.972,258.918 115.897 C 260.503 115.821,259.100 115.759,255.800 115.760 C 252.500 115.761,251.203 115.822,252.918 115.898 M126.900 126.298 C 129.265 126.369,133.135 126.369,135.500 126.298 C 137.865 126.228,135.930 126.170,131.200 126.170 C 126.470 126.170,124.535 126.228,126.900 126.298 M148.912 126.295 C 149.964 126.377,151.584 126.376,152.512 126.292 C 153.440 126.208,152.580 126.141,150.600 126.142 C 148.620 126.143,147.860 126.212,148.912 126.295 M236.100 126.300 C 243.745 126.361,256.255 126.361,263.900 126.300 C 271.545 126.239,265.290 126.189,250.000 126.189 C 234.710 126.189,228.455 126.239,236.100 126.300 M121.795 187.200 C 121.795 220.310,121.842 233.855,121.900 217.300 C 121.958 200.745,121.958 173.655,121.900 157.100 C 121.842 140.545,121.795 154.090,121.795 187.200 M278.165 134.200 C 278.166 138.160,278.226 139.726,278.298 137.680 C 278.371 135.634,278.371 132.394,278.298 130.480 C 278.224 128.566,278.165 130.240,278.165 134.200 M111.391 187.000 C 111.391 205.700,111.440 213.292,111.500 203.870 C 111.560 194.449,111.560 179.149,111.500 169.870 C 111.440 160.592,111.391 168.300,111.391 187.000 M278.168 168.600 C 278.168 173.000,278.226 174.855,278.298 172.721 C 278.370 170.588,278.370 166.988,278.299 164.721 C 278.227 162.455,278.168 164.200,278.168 168.600 M340.588 200.400 C 340.588 214.370,340.639 220.085,340.700 213.100 C 340.761 206.115,340.761 194.685,340.700 187.700 C 340.639 180.715,340.588 186.430,340.588 200.400 M278.175 189.600 C 278.175 195.430,278.231 197.815,278.299 194.900 C 278.367 191.985,278.367 187.215,278.299 184.300 C 278.231 181.385,278.175 183.770,278.175 189.600 M278.178 236.400 C 278.178 243.110,278.232 245.855,278.299 242.500 C 278.366 239.145,278.366 233.655,278.299 230.300 C 278.232 226.945,278.178 229.690,278.178 236.400 M278.120 257.600 C 278.120 258.810,278.195 259.305,278.287 258.700 C 278.378 258.095,278.378 257.105,278.287 256.500 C 278.195 255.895,278.120 256.390,278.120 257.600 M278.093 266.400 C 278.093 267.170,278.175 267.485,278.276 267.100 C 278.376 266.715,278.376 266.085,278.276 265.700 C 278.175 265.315,278.093 265.630,278.093 266.400 M277.968 273.700 C 277.849 274.560,277.910 275.050,278.112 274.848 C 278.305 274.655,278.398 273.981,278.319 273.349 C 278.187 272.291,278.159 272.319,277.968 273.700 M124.307 275.090 C 125.026 275.179,126.106 275.177,126.707 275.086 C 127.308 274.995,126.720 274.922,125.400 274.924 C 124.080 274.926,123.588 275.001,124.307 275.090 M275.300 285.894 C 276.345 285.976,278.055 285.976,279.100 285.894 C 280.145 285.812,279.290 285.744,277.200 285.744 C 275.110 285.744,274.255 285.812,275.300 285.894 M292.600 297.200 C 295.233 299.840,297.477 302.000,297.587 302.000 C 297.697 302.000,295.633 299.840,293.000 297.200 C 290.367 294.560,288.123 292.400,288.013 292.400 C 287.903 292.400,289.967 294.560,292.600 297.200 M98.793 305.500 L 94.200 310.200 98.900 305.607 C 101.485 303.080,103.600 300.965,103.600 300.907 C 103.600 300.618,103.060 301.134,98.793 305.500 M76.400 327.400 C 75.428 328.390,74.723 329.200,74.833 329.200 C 74.943 329.200,75.828 328.390,76.800 327.400 C 77.772 326.410,78.477 325.600,78.367 325.600 C 78.257 325.600,77.372 326.410,76.400 327.400 M125.500 337.500 C 131.495 337.562,141.305 337.562,147.300 337.500 C 153.295 337.438,148.390 337.387,136.400 337.387 C 124.410 337.387,119.505 337.438,125.500 337.500 M194.300 337.500 C 199.195 337.563,207.205 337.563,212.100 337.500 C 216.995 337.436,212.990 337.384,203.200 337.384 C 193.410 337.384,189.405 337.436,194.300 337.500 M74.721 337.899 C 76.988 337.970,80.588 337.970,82.721 337.898 C 84.855 337.826,83.000 337.768,78.600 337.768 C 74.200 337.768,72.455 337.827,74.721 337.899 " stroke="none" fill="#e8c0b5" fill-rule="evenodd"></path><path id="path3" d="M65.403 63.195 C 65.153 63.600,68.640 67.600,69.243 67.600 C 69.426 67.600,68.642 66.690,67.500 65.578 C 65.828 63.949,65.539 63.483,66.012 63.184 C 66.371 62.957,66.415 62.810,66.124 62.806 C 65.862 62.803,65.537 62.978,65.403 63.195 M333.200 63.158 C 333.687 63.498,328.868 68.517,307.600 89.823 L 281.400 116.069 250.400 115.890 C 228.813 115.765,224.622 115.798,236.600 115.998 C 246.060 116.156,260.010 116.310,267.600 116.341 L 281.400 116.397 307.600 90.227 C 332.959 64.897,334.496 63.257,333.200 62.903 C 332.667 62.757,332.667 62.786,333.200 63.158 M70.400 68.538 C 70.400 68.687,74.315 72.660,79.100 77.368 C 83.885 82.075,87.935 86.063,88.100 86.230 C 88.265 86.397,88.400 86.451,88.400 86.351 C 88.400 86.250,84.350 82.140,79.400 77.218 C 74.450 72.295,70.400 68.389,70.400 68.538 M335.024 76.048 C 332.625 78.442,330.787 80.400,330.940 80.400 C 331.093 80.400,333.090 78.532,335.378 76.249 C 338.349 73.286,339.662 72.222,339.969 72.529 C 340.277 72.837,340.400 72.835,340.400 72.523 C 340.400 71.188,338.931 72.152,335.024 76.048 M59.062 146.700 C 58.738 246.282,59.164 329.349,60.000 329.492 C 60.567 329.590,87.600 303.260,87.600 302.611 C 87.600 302.445,81.564 308.314,74.187 315.654 C 66.810 322.994,60.555 329.000,60.287 329.000 C 59.905 329.000,59.800 301.350,59.800 201.000 C 59.800 99.370,59.902 73.000,60.296 73.000 C 60.569 73.000,66.824 79.004,74.196 86.343 C 81.568 93.681,87.600 99.548,87.600 99.380 C 87.600 98.767,60.581 72.401,59.952 72.401 C 59.358 72.400,59.284 78.584,59.062 146.700 M325.400 85.600 C 322.767 88.240,320.703 90.400,320.813 90.400 C 320.923 90.400,323.167 88.240,325.800 85.600 C 328.433 82.960,330.497 80.800,330.387 80.800 C 330.277 80.800,328.033 82.960,325.400 85.600 M340.528 209.556 C 340.476 308.127,340.374 328.570,339.933 328.850 C 339.517 329.114,339.542 329.189,340.051 329.194 C 340.850 329.201,341.410 196.681,340.894 129.800 C 340.658 99.314,340.577 117.043,340.528 209.556 M316.400 94.600 C 315.428 95.590,314.723 96.400,314.833 96.400 C 314.943 96.400,315.828 95.590,316.800 94.600 C 317.772 93.610,318.477 92.800,318.367 92.800 C 318.257 92.800,317.372 93.610,316.400 94.600 M310.435 100.603 C 309.464 101.591,308.789 102.400,308.935 102.400 C 309.241 102.400,312.400 99.300,312.400 99.000 C 312.400 98.639,312.219 98.787,310.435 100.603 M104.880 102.937 C 106.784 104.842,108.463 106.400,108.610 106.400 C 109.013 106.400,103.118 100.432,102.208 99.920 C 101.773 99.674,102.975 101.032,104.880 102.937 M300.181 110.900 L 298.600 112.600 300.300 111.019 C 301.881 109.548,302.184 109.200,301.881 109.200 C 301.816 109.200,301.051 109.965,300.181 110.900 M100.200 112.350 C 100.860 112.982,101.482 113.425,101.583 113.334 C 101.780 113.155,99.631 111.200,99.238 111.200 C 99.107 111.201,99.540 111.718,100.200 112.350 M116.708 114.600 L 118.586 116.400 139.793 116.347 C 151.457 116.319,165.140 116.179,170.200 116.036 C 175.260 115.894,165.720 115.849,149.000 115.937 L 118.600 116.096 117.019 114.448 C 116.149 113.542,115.301 112.800,115.133 112.800 C 114.966 112.800,115.674 113.610,116.708 114.600 M106.400 118.200 C 108.923 120.730,111.077 122.800,111.187 122.800 C 111.297 122.800,109.323 120.730,106.800 118.200 C 104.277 115.670,102.123 113.600,102.013 113.600 C 101.903 113.600,103.877 115.670,106.400 118.200 M194.124 116.299 C 197.162 116.367,202.022 116.367,204.924 116.299 C 207.826 116.231,205.340 116.175,199.400 116.175 C 193.460 116.175,191.086 116.231,194.124 116.299 M111.555 200.286 C 111.698 271.788,111.660 277.649,111.046 278.586 C 110.299 279.727,110.622 279.982,111.443 278.900 C 112.014 278.148,112.162 175.528,111.644 139.800 C 111.510 130.560,111.470 157.779,111.555 200.286 M122.300 126.032 C 121.915 126.256,121.600 126.624,121.600 126.848 C 121.600 127.073,121.883 126.974,122.229 126.629 C 123.254 125.603,277.370 125.674,277.968 126.700 C 278.330 127.321,278.377 127.326,278.388 126.743 C 278.395 126.381,278.115 125.976,277.767 125.843 C 276.619 125.402,123.061 125.589,122.300 126.032 M278.573 151.200 C 278.573 156.590,278.630 158.795,278.699 156.100 C 278.768 153.405,278.768 148.995,278.699 146.300 C 278.630 143.605,278.573 145.810,278.573 151.200 M288.498 215.461 L 288.400 278.722 301.753 292.161 C 309.096 299.553,315.237 305.600,315.398 305.600 C 315.559 305.600,309.685 299.575,302.345 292.211 L 289.000 278.822 288.798 215.511 L 288.596 152.200 288.498 215.461 M278.501 177.800 C 278.505 178.680,278.587 178.993,278.683 178.495 C 278.779 177.998,278.775 177.278,278.675 176.895 C 278.575 176.513,278.496 176.920,278.501 177.800 M278.578 212.000 C 278.578 218.710,278.632 221.455,278.699 218.100 C 278.766 214.745,278.766 209.255,278.699 205.900 C 278.632 202.545,278.578 205.290,278.578 212.000 M121.690 260.326 C 121.601 273.476,121.744 275.209,122.914 275.194 C 123.218 275.190,123.175 275.046,122.800 274.809 C 122.293 274.488,122.168 272.313,121.990 260.715 L 121.779 247.000 121.690 260.326 M278.544 252.000 C 278.544 254.090,278.612 254.945,278.694 253.900 C 278.776 252.855,278.776 251.145,278.694 250.100 C 278.612 249.055,278.544 249.910,278.544 252.000 M278.501 263.800 C 278.505 264.680,278.587 264.993,278.683 264.495 C 278.779 263.998,278.775 263.278,278.675 262.895 C 278.575 262.513,278.496 262.920,278.501 263.800 M278.528 270.000 C 278.528 271.430,278.601 272.015,278.689 271.300 C 278.778 270.585,278.778 269.415,278.689 268.700 C 278.601 267.985,278.528 268.570,278.528 270.000 M146.124 275.499 C 149.383 275.567,154.603 275.566,157.724 275.499 C 160.846 275.431,158.180 275.376,151.800 275.377 C 145.420 275.377,142.866 275.432,146.124 275.499 M182.300 275.482 C 182.795 275.578,183.605 275.578,184.100 275.482 C 184.595 275.387,184.190 275.309,183.200 275.309 C 182.210 275.309,181.805 275.387,182.300 275.482 M201.300 275.476 C 201.685 275.576,202.315 275.576,202.700 275.476 C 203.085 275.375,202.770 275.293,202.000 275.293 C 201.230 275.293,200.915 275.375,201.300 275.476 M217.900 275.498 C 219.715 275.572,222.685 275.572,224.500 275.498 C 226.315 275.423,224.830 275.363,221.200 275.363 C 217.570 275.363,216.085 275.423,217.900 275.498 M240.100 275.476 C 240.485 275.576,241.115 275.576,241.500 275.476 C 241.885 275.375,241.570 275.293,240.800 275.293 C 240.030 275.293,239.715 275.375,240.100 275.476 M257.911 275.493 C 258.851 275.578,260.291 275.577,261.111 275.491 C 261.930 275.405,261.160 275.336,259.400 275.337 C 257.640 275.339,256.970 275.409,257.911 275.493 M274.305 275.483 C 274.802 275.579,275.522 275.575,275.905 275.475 C 276.287 275.375,275.880 275.296,275.000 275.301 C 274.120 275.305,273.807 275.387,274.305 275.483 M100.977 289.100 C 98.545 291.575,96.658 293.600,96.784 293.600 C 97.125 293.600,105.790 284.845,105.580 284.713 C 105.481 284.651,103.410 286.625,100.977 289.100 M116.972 286.714 C 116.327 287.327,114.450 289.265,112.800 291.021 C 110.328 293.651,110.518 293.507,113.875 290.207 L 117.950 286.200 195.875 285.998 L 273.800 285.797 195.972 285.698 L 118.144 285.600 116.972 286.714 M316.752 320.854 C 325.804 329.966,331.991 336.491,331.828 336.754 C 331.677 336.999,331.743 337.200,331.976 337.200 C 333.211 337.200,331.108 334.913,316.900 320.798 L 301.400 305.400 316.752 320.854 M324.400 314.599 C 324.400 314.753,326.536 316.977,329.146 319.540 C 336.852 327.106,338.400 328.584,338.400 328.373 C 338.400 328.263,335.250 325.055,331.400 321.245 C 327.550 317.436,324.400 314.445,324.400 314.599 M83.986 319.746 C 81.684 322.027,79.448 324.322,79.017 324.846 C 78.587 325.371,80.522 323.553,83.317 320.806 C 86.113 318.059,88.400 315.764,88.400 315.706 C 88.400 315.415,87.863 315.907,83.986 319.746 M76.181 327.300 L 74.600 329.000 76.300 327.419 C 77.881 325.948,78.184 325.600,77.881 325.600 C 77.816 325.600,77.051 326.365,76.181 327.300 M72.159 331.555 C 70.862 332.851,69.264 334.516,68.609 335.255 C 67.953 335.995,69.078 334.984,71.109 333.008 C 73.139 331.033,74.800 329.368,74.800 329.308 C 74.800 328.992,74.309 329.410,72.159 331.555 M67.028 337.155 C 66.907 337.350,67.035 337.697,67.312 337.927 C 67.855 338.378,185.135 337.809,185.568 337.353 C 185.696 337.219,173.560 337.216,158.600 337.346 C 100.706 337.850,67.393 337.833,67.500 337.300 C 67.616 336.721,67.347 336.638,67.028 337.155 M229.100 337.500 C 233.775 337.564,241.425 337.564,246.100 337.500 C 250.775 337.436,246.950 337.383,237.600 337.383 C 228.250 337.383,224.425 337.436,229.100 337.500 " stroke="none" fill="#f4c4c4" fill-rule="evenodd"></path><path id="path4" d="M74.700 63.108 C 65.408 63.223,65.190 63.281,67.110 65.131 C 67.977 65.965,117.062 114.386,118.036 115.367 C 118.166 115.498,154.906 115.634,199.681 115.669 L 281.090 115.733 282.245 114.893 C 284.157 113.503,333.200 64.224,333.200 63.693 C 333.200 63.346,332.283 63.197,330.100 63.190 C 301.859 63.101,80.992 63.030,74.700 63.108 M332.000 64.101 C 332.000 64.377,320.692 75.910,306.870 89.730 L 281.741 114.857 200.097 114.959 L 118.453 115.062 110.526 107.226 C 79.569 76.622,67.200 64.270,67.200 63.959 C 67.200 63.748,121.732 63.600,199.600 63.600 C 305.421 63.600,332.000 63.701,332.000 64.101 M314.100 97.549 L 288.800 122.663 288.800 200.639 L 288.800 278.615 313.960 303.754 C 328.724 318.506,339.344 328.819,339.660 328.713 C 340.647 328.384,340.640 72.350,339.653 72.417 C 339.514 72.427,328.015 83.736,314.100 97.549 M59.785 73.300 C 59.310 74.551,59.805 329.000,60.283 329.000 C 60.991 329.000,110.821 279.197,111.255 278.055 C 111.479 277.466,111.515 246.833,111.346 200.043 L 111.068 123.002 105.540 117.601 C 102.499 114.630,91.149 103.335,80.318 92.500 C 60.681 72.857,60.144 72.355,59.785 73.300 M339.893 213.200 C 339.816 307.762,339.708 327.800,339.272 327.800 C 338.982 327.800,327.597 316.655,313.972 303.034 L 289.200 278.267 289.200 200.562 L 289.200 122.857 299.100 113.135 C 304.545 107.787,315.840 96.616,324.200 88.309 L 339.400 73.207 339.693 85.903 C 339.854 92.886,339.944 150.170,339.893 213.200 M90.602 103.450 L 110.800 123.500 110.800 200.961 L 110.800 278.421 85.712 303.391 C 69.216 319.809,60.519 328.196,60.318 327.881 C 59.950 327.302,59.890 75.153,60.257 74.196 C 60.458 73.672,61.591 74.601,65.459 78.463 C 68.178 81.178,79.492 92.423,90.602 103.450 M131.000 126.375 L 122.200 126.600 122.099 200.250 C 122.005 268.390,122.047 273.941,122.660 274.450 C 123.526 275.168,277.053 275.507,277.768 274.792 C 278.203 274.357,278.382 127.049,277.948 126.614 C 277.662 126.329,141.489 126.107,131.000 126.375 M277.361 127.228 C 277.542 127.408,277.772 247.666,277.634 269.511 L 277.600 274.822 200.765 274.711 L 123.929 274.600 123.165 273.656 C 122.019 272.241,121.956 127.384,123.100 127.062 C 124.085 126.785,277.083 126.950,277.361 127.228 M93.298 311.100 C 69.530 334.783,66.915 337.539,68.113 337.642 C 68.993 337.717,88.257 337.606,107.200 337.416 C 117.430 337.313,171.970 337.220,228.400 337.209 C 296.030 337.195,331.205 337.052,331.600 336.788 C 332.081 336.468,327.169 331.389,306.847 311.194 L 281.495 286.000 199.991 286.000 L 118.487 286.000 93.298 311.100 M306.004 311.072 C 319.642 324.641,330.800 335.981,330.800 336.272 C 330.800 336.708,308.485 336.800,202.059 336.800 C 131.251 336.800,72.211 336.916,70.859 337.057 C 69.424 337.207,68.400 337.159,68.400 336.942 C 68.400 336.737,74.205 330.806,81.300 323.762 C 103.606 301.617,109.286 295.926,113.603 291.400 L 117.800 287.000 126.600 286.782 C 131.440 286.662,168.207 286.527,208.304 286.482 L 281.208 286.400 306.004 311.072 " stroke="none" fill="#f39490" fill-rule="evenodd"></path></g></svg>