<svg id="svg" version="1.1" xmlns="http://www.w3.org/2000/svg" xmlns:xlink="http://www.w3.org/1999/xlink" width="400" height="400" viewBox="0, 0, 400,400"><g id="svgg"><path id="path0" d="M68.500 63.925 C 67.252 64.046,66.749 64.583,67.615 64.872 C 68.036 65.012,97.140 93.586,110.830 107.300 L 118.317 114.800 199.859 114.800 L 281.402 114.800 306.584 89.616 C 320.434 75.765,331.632 64.299,331.469 64.135 C 331.192 63.859,71.345 63.651,68.500 63.925 M324.313 88.345 C 316.016 96.625,304.721 107.841,299.213 113.269 L 289.200 123.139 289.200 200.652 L 289.200 278.165 314.300 303.182 L 339.400 328.200 339.501 264.268 C 339.557 229.105,339.557 171.750,339.501 136.813 L 339.400 73.290 324.313 88.345 M60.400 200.968 L 60.400 328.435 66.955 321.918 C 94.792 294.239,103.754 285.296,107.032 281.925 L 110.800 278.049 110.800 200.872 L 110.800 123.695 106.300 119.231 C 103.825 116.776,92.485 105.482,81.100 94.134 L 60.400 73.501 60.400 200.968 M122.440 199.500 C 122.462 239.265,122.604 272.250,122.756 272.800 C 123.203 274.418,123.990 274.436,202.900 274.652 L 277.600 274.856 277.600 201.028 L 277.600 127.200 200.000 127.200 L 122.400 127.200 122.440 199.500 M133.200 286.889 L 117.800 287.228 113.000 292.264 C 110.360 295.034,105.259 300.202,101.663 303.750 C 98.068 307.297,89.085 316.185,81.700 323.500 L 68.273 336.800 188.837 336.799 C 307.057 336.798,330.400 336.650,330.400 335.900 C 330.400 335.593,310.627 315.738,292.755 298.099 C 290.470 295.844,286.896 292.285,284.814 290.190 L 281.029 286.382 214.814 286.466 C 178.396 286.512,141.670 286.702,133.200 286.889 " stroke="none" fill="#ebb424" fill-rule="evenodd"></path><path id="path1" d="M0.000 200.000 L 0.000 400.000 200.000 400.000 L 400.000 400.000 400.000 200.000 L 400.000 0.000 200.000 0.000 L 0.000 0.000 0.000 200.000 M333.874 63.423 C 333.971 63.713,287.063 111.026,281.747 116.000 C 281.630 116.110,244.822 116.232,199.952 116.271 L 118.370 116.341 103.243 101.271 C 94.923 92.982,82.941 81.127,76.617 74.928 C 70.182 68.619,65.235 63.467,65.383 63.227 C 65.755 62.626,333.674 62.821,333.874 63.423 M340.547 90.925 C 341.604 173.608,341.184 329.200,339.903 329.200 C 338.878 329.200,338.076 328.428,311.269 301.638 L 288.291 278.675 288.477 200.395 L 288.662 122.115 292.345 118.557 C 294.370 116.601,297.236 113.762,298.714 112.249 C 300.191 110.736,302.885 108.036,304.700 106.249 C 306.515 104.462,311.735 99.240,316.300 94.644 C 320.865 90.048,326.272 84.648,328.317 82.644 C 330.361 80.640,333.684 77.355,335.702 75.345 C 337.720 73.335,339.582 71.772,339.839 71.870 C 340.181 72.002,340.370 77.089,340.547 90.925 M86.079 97.700 L 111.497 123.000 111.749 145.366 C 111.887 157.667,112.000 192.670,112.000 223.149 L 112.000 278.567 86.305 304.094 C 71.266 319.035,60.359 329.574,60.005 329.506 C 58.575 329.231,58.553 72.400,59.983 72.400 C 60.356 72.400,72.100 83.785,86.079 97.700 M277.979 125.979 C 278.511 126.315,278.874 162.612,278.841 212.000 C 278.819 243.720,278.536 274.797,278.267 275.067 C 277.458 275.875,122.747 275.415,122.153 274.603 C 121.196 273.294,121.341 126.590,122.300 126.032 C 123.209 125.503,277.143 125.450,277.979 125.979 M307.028 310.878 C 320.982 324.781,332.400 336.364,332.400 336.618 C 332.400 337.166,266.688 337.647,170.600 337.803 C 136.940 337.857,100.191 338.029,88.936 338.184 C 73.955 338.391,68.244 338.345,67.623 338.012 L 66.775 337.559 67.635 336.350 C 68.108 335.686,72.888 330.790,78.256 325.471 C 98.083 305.825,109.907 294.018,113.913 289.864 L 118.026 285.600 199.841 285.600 L 281.655 285.600 307.028 310.878 " stroke="none" fill="#fbfbfb" fill-rule="evenodd"></path><path id="path2" d="M199.500 63.100 C 305.902 63.181,332.800 63.302,332.800 63.702 C 332.800 63.977,321.283 75.718,307.207 89.793 L 281.614 115.384 200.107 115.450 L 118.600 115.517 117.000 114.059 L 115.400 112.600 116.952 114.270 L 118.503 115.939 200.051 115.870 L 281.599 115.800 307.458 89.941 C 326.271 71.129,333.250 63.907,333.071 63.441 C 332.846 62.854,321.496 62.808,199.513 62.899 L 66.200 62.999 199.500 63.100 M65.914 63.800 C 66.141 64.240,66.838 65.049,67.463 65.599 L 68.600 66.597 67.403 65.199 C 65.507 62.982,65.480 62.958,65.914 63.800 M72.685 70.500 C 72.827 70.775,79.617 77.569,87.772 85.598 L 102.600 100.196 87.602 85.098 C 72.326 69.721,72.232 69.629,72.685 70.500 M329.771 81.909 C 324.474 87.129,322.584 89.056,325.571 86.191 C 336.563 75.644,339.875 72.400,339.640 72.409 C 339.508 72.414,335.067 76.689,329.771 81.909 M59.797 73.267 C 59.685 73.560,59.641 91.080,59.699 112.200 L 59.804 150.600 59.902 111.900 C 59.956 90.615,60.133 73.200,60.295 73.200 C 60.457 73.200,63.067 75.673,66.095 78.695 C 69.123 81.717,71.600 84.087,71.600 83.962 C 71.600 83.652,60.867 73.033,60.386 72.867 C 60.174 72.793,59.909 72.973,59.797 73.267 M340.194 124.000 C 340.194 152.050,340.242 163.525,340.300 149.500 C 340.358 135.475,340.358 112.525,340.300 98.500 C 340.242 84.475,340.194 95.950,340.194 124.000 M315.787 95.700 C 310.762 100.917,309.027 102.800,309.244 102.800 C 309.362 102.800,311.574 100.550,314.160 97.800 C 316.747 95.050,318.799 92.800,318.721 92.800 C 318.644 92.800,317.323 94.105,315.787 95.700 M105.226 102.700 C 106.659 104.185,109.518 107.110,111.581 109.200 C 113.644 111.290,112.581 110.075,109.219 106.500 C 105.858 102.925,102.998 100.000,102.864 100.000 C 102.731 100.000,103.794 101.215,105.226 102.700 M305.765 105.542 C 304.244 107.051,301.291 110.066,299.202 112.242 C 297.113 114.419,298.418 113.232,302.102 109.605 C 305.786 105.977,308.800 102.962,308.800 102.905 C 308.800 102.595,308.283 103.044,305.765 105.542 M96.000 108.429 C 96.000 108.541,99.465 111.937,103.700 115.976 C 107.935 120.015,109.057 120.997,106.193 118.160 C 99.301 111.331,96.000 108.180,96.000 108.429 M288.981 137.200 C 288.981 145.450,289.034 148.825,289.099 144.700 C 289.164 140.575,289.164 133.825,289.099 129.700 C 289.034 125.575,288.981 128.950,288.981 137.200 M122.715 126.328 C 122.338 126.478,157.106 126.600,199.977 126.600 C 242.847 126.600,277.840 126.465,277.738 126.300 C 277.507 125.926,123.657 125.954,122.715 126.328 M121.795 187.200 C 121.795 220.310,121.842 233.855,121.900 217.300 C 121.958 200.745,121.958 173.655,121.900 157.100 C 121.842 140.545,121.795 154.090,121.795 187.200 M278.099 200.867 C 278.020 259.511,277.897 274.775,277.500 274.935 C 277.108 275.093,277.111 275.144,277.513 275.168 C 278.409 275.224,278.407 275.447,278.302 200.600 L 278.198 127.000 278.099 200.867 M111.395 215.800 C 111.395 250.120,111.442 264.101,111.500 246.869 C 111.558 229.636,111.558 201.556,111.500 184.469 C 111.442 167.381,111.395 181.480,111.395 215.800 M339.903 277.400 C 339.846 305.670,339.935 328.800,340.100 328.800 C 340.265 328.800,340.400 305.670,340.400 277.400 C 340.400 249.130,340.311 226.000,340.203 226.000 C 340.095 226.000,339.960 249.130,339.903 277.400 M59.698 284.676 C 59.627 316.772,59.721 328.828,60.046 329.029 C 60.308 329.190,63.243 326.514,67.146 322.554 L 73.800 315.803 67.196 322.302 C 63.563 325.876,60.459 328.800,60.297 328.800 C 60.136 328.800,59.957 308.955,59.900 284.700 L 59.796 240.600 59.698 284.676 M127.700 275.098 C 130.065 275.169,133.935 275.169,136.300 275.098 C 138.665 275.028,136.730 274.970,132.000 274.970 C 127.270 274.970,125.335 275.028,127.700 275.098 M167.723 275.099 C 170.320 275.169,174.460 275.168,176.923 275.098 C 179.385 275.028,177.260 274.971,172.200 274.972 C 167.140 274.972,165.125 275.029,167.723 275.099 M185.905 275.083 C 186.402 275.179,187.122 275.175,187.505 275.075 C 187.887 274.975,187.480 274.896,186.600 274.901 C 185.720 274.905,185.407 274.987,185.905 275.083 M197.900 275.082 C 198.395 275.178,199.205 275.178,199.700 275.082 C 200.195 274.987,199.790 274.909,198.800 274.909 C 197.810 274.909,197.405 274.987,197.900 275.082 M205.900 275.097 C 207.495 275.173,210.105 275.173,211.700 275.097 C 213.295 275.021,211.990 274.959,208.800 274.959 C 205.610 274.959,204.305 275.021,205.900 275.097 M230.482 275.096 C 231.958 275.173,234.478 275.173,236.082 275.097 C 237.687 275.021,236.480 274.958,233.400 274.958 C 230.320 274.957,229.007 275.019,230.482 275.096 M251.511 275.093 C 252.451 275.178,253.891 275.177,254.711 275.091 C 255.530 275.005,254.760 274.936,253.000 274.937 C 251.240 274.939,250.570 275.009,251.511 275.093 M264.700 275.093 C 265.635 275.177,267.165 275.177,268.100 275.093 C 269.035 275.009,268.270 274.940,266.400 274.940 C 264.530 274.940,263.765 275.009,264.700 275.093 M288.800 278.245 C 288.800 278.453,290.015 279.788,291.500 281.212 L 294.200 283.800 291.600 281.010 C 290.170 279.476,288.955 278.141,288.900 278.044 C 288.845 277.946,288.800 278.037,288.800 278.245 M100.793 289.100 L 96.600 293.400 100.900 289.207 C 104.894 285.313,105.382 284.800,105.093 284.800 C 105.034 284.800,103.099 286.735,100.793 289.100 M275.300 285.894 C 276.345 285.976,278.055 285.976,279.100 285.894 C 280.145 285.812,279.290 285.744,277.200 285.744 C 275.110 285.744,274.255 285.812,275.300 285.894 M117.275 286.816 C 116.794 287.264,116.400 287.746,116.400 287.885 C 116.400 288.025,116.813 287.752,117.317 287.278 C 118.188 286.460,118.664 286.411,126.817 286.300 L 135.400 286.183 126.775 286.092 C 118.581 286.005,118.107 286.041,117.275 286.816 M287.203 291.712 C 289.951 294.523,301.065 305.679,311.900 316.502 C 322.735 327.326,331.600 336.321,331.600 336.491 C 331.600 336.661,314.365 336.844,293.300 336.898 L 255.000 336.996 293.178 337.100 C 318.964 337.170,331.490 337.070,331.768 336.792 C 332.050 336.510,324.329 328.560,307.193 311.490 C 293.450 297.801,284.454 288.900,287.203 291.712 M111.792 292.500 L 107.800 296.600 111.900 292.608 C 114.155 290.412,116.000 288.567,116.000 288.508 C 116.000 288.218,115.501 288.692,111.792 292.500 M106.200 298.103 C 103.055 301.479,102.836 302.204,105.929 299.000 C 107.097 297.790,107.905 296.803,107.726 296.808 C 107.547 296.812,106.860 297.395,106.200 298.103 M85.387 318.772 C 74.707 329.417,67.800 336.596,67.800 337.051 C 67.800 337.761,68.277 337.801,76.900 337.812 L 86.000 337.823 77.000 337.704 C 70.193 337.614,68.004 337.465,68.016 337.092 C 68.035 336.504,74.342 330.040,90.908 313.630 C 97.665 306.936,103.144 301.411,103.084 301.351 C 103.024 301.291,95.060 309.130,85.387 318.772 M335.600 325.400 C 337.460 327.270,339.072 328.800,339.182 328.800 C 339.292 328.800,337.860 327.270,336.000 325.400 C 334.140 323.530,332.528 322.000,332.418 322.000 C 332.308 322.000,333.740 323.530,335.600 325.400 M104.100 337.500 C 113.945 337.559,130.055 337.559,139.900 337.500 C 149.745 337.440,141.690 337.392,122.000 337.392 C 102.310 337.392,94.255 337.440,104.100 337.500 " stroke="none" fill="#e9e1b0" fill-rule="evenodd"></path><path id="path3" d="M65.377 63.238 C 65.222 63.488,67.483 65.988,70.653 69.073 C 73.704 72.041,78.909 77.109,82.220 80.335 C 85.531 83.561,83.124 81.094,76.872 74.853 C 68.424 66.422,65.644 63.418,66.052 63.160 C 66.414 62.930,66.439 62.810,66.124 62.806 C 65.862 62.803,65.525 62.997,65.377 63.238 M333.046 63.477 C 333.182 64.011,326.446 70.978,307.257 90.150 L 281.285 116.100 250.143 115.898 L 219.000 115.696 249.576 116.098 C 267.134 116.329,280.550 116.351,281.085 116.150 C 282.251 115.712,334.064 63.992,333.883 63.448 C 333.637 62.710,332.859 62.738,333.046 63.477 M335.586 75.439 C 324.470 86.446,318.800 92.226,318.800 92.552 C 318.800 92.752,319.856 91.765,321.147 90.358 C 326.836 84.157,339.660 72.249,340.025 72.827 C 340.327 73.305,340.389 73.291,340.394 72.743 C 340.408 71.205,339.148 71.912,335.586 75.439 M59.062 146.700 C 58.737 246.597,59.163 329.344,60.005 329.506 C 60.359 329.574,71.266 319.035,86.305 304.094 L 112.000 278.567 111.944 217.583 C 111.913 184.043,111.778 149.040,111.644 139.800 C 111.510 130.560,111.470 157.840,111.555 200.423 L 111.710 277.847 110.356 279.423 C 107.692 282.523,60.745 329.000,60.277 329.000 C 59.909 329.000,59.800 299.887,59.800 201.000 C 59.800 97.016,59.896 73.000,60.314 73.000 C 60.597 73.000,70.002 82.162,81.214 93.359 C 92.426 104.557,101.600 113.588,101.600 113.428 C 101.600 112.794,60.637 72.400,59.994 72.400 C 59.344 72.400,59.290 76.721,59.062 146.700 M340.469 209.672 L 340.400 328.744 339.500 328.918 C 338.693 329.073,338.708 329.097,339.651 329.146 L 340.701 329.200 340.949 249.100 C 341.085 205.045,341.048 151.360,340.867 129.800 C 340.597 97.577,340.526 111.794,340.469 209.672 M316.400 94.600 C 315.428 95.590,314.723 96.400,314.833 96.400 C 314.943 96.400,315.828 95.590,316.800 94.600 C 317.772 93.610,318.477 92.800,318.367 92.800 C 318.257 92.800,317.372 93.610,316.400 94.600 M310.434 100.604 C 309.463 101.593,308.754 102.487,308.858 102.592 C 308.963 102.696,309.931 101.886,311.009 100.791 C 312.088 99.696,312.797 98.801,312.585 98.803 C 312.373 98.805,311.405 99.615,310.434 100.604 M104.880 102.937 C 106.784 104.842,108.467 106.400,108.618 106.400 C 109.039 106.400,103.110 100.389,102.208 99.902 C 101.773 99.666,102.975 101.032,104.880 102.937 M302.200 108.716 C 301.980 108.883,301.081 109.825,300.201 110.810 L 298.603 112.600 300.701 110.615 C 301.856 109.523,302.800 108.578,302.800 108.515 C 302.800 108.333,302.630 108.389,302.200 108.716 M116.679 114.573 L 118.529 116.345 168.694 116.335 C 196.285 116.330,218.768 116.235,218.658 116.124 C 218.547 116.014,195.968 115.928,168.482 115.934 L 118.508 115.944 116.973 114.372 C 116.128 113.507,115.301 112.800,115.133 112.800 C 114.966 112.800,115.662 113.598,116.679 114.573 M106.400 118.200 C 108.923 120.730,111.077 122.800,111.187 122.800 C 111.297 122.800,109.323 120.730,106.800 118.200 C 104.277 115.670,102.123 113.600,102.013 113.600 C 101.903 113.600,103.877 115.670,106.400 118.200 M292.414 118.429 C 290.385 120.425,288.796 122.130,288.883 122.217 C 288.970 122.303,290.738 120.670,292.813 118.587 C 294.887 116.504,296.476 114.800,296.343 114.800 C 296.211 114.800,294.443 116.433,292.414 118.429 M122.300 126.032 C 121.915 126.256,121.603 126.656,121.606 126.920 C 121.610 127.212,121.761 127.165,121.992 126.800 C 122.614 125.816,277.178 125.689,277.900 126.672 C 278.336 127.266,278.400 127.272,278.400 126.719 C 278.400 126.371,278.115 125.976,277.767 125.843 C 276.619 125.402,123.061 125.589,122.300 126.032 M278.574 151.200 C 278.574 156.810,278.630 159.105,278.699 156.300 C 278.768 153.495,278.768 148.905,278.699 146.100 C 278.630 143.295,278.574 145.590,278.574 151.200 M288.498 215.290 L 288.400 278.780 311.131 301.490 C 323.633 313.980,334.924 325.190,336.224 326.400 C 337.523 327.610,327.429 317.409,313.793 303.732 L 289.000 278.864 288.798 215.332 L 288.596 151.800 288.498 215.290 M278.509 177.600 C 278.509 178.590,278.587 178.995,278.682 178.500 C 278.778 178.005,278.778 177.195,278.682 176.700 C 278.587 176.205,278.509 176.610,278.509 177.600 M278.523 212.200 C 278.522 224.146,278.536 224.368,278.896 218.260 C 279.128 214.327,279.129 209.619,278.897 205.860 C 278.543 200.120,278.523 200.454,278.523 212.200 M121.694 260.326 C 121.599 273.811,121.726 275.200,123.058 275.200 C 123.550 275.200,123.502 275.046,122.843 274.500 C 122.016 273.816,121.994 273.493,121.893 260.400 L 121.789 247.000 121.694 260.326 M278.548 252.000 C 278.548 254.310,278.614 255.255,278.695 254.100 C 278.776 252.945,278.776 251.055,278.695 249.900 C 278.614 248.745,278.548 249.690,278.548 252.000 M278.534 262.400 C 278.534 264.050,278.605 264.725,278.691 263.900 C 278.778 263.075,278.778 261.725,278.691 260.900 C 278.605 260.075,278.534 260.750,278.534 262.400 M278.528 270.000 C 278.528 271.430,278.601 272.015,278.689 271.300 C 278.778 270.585,278.778 269.415,278.689 268.700 C 278.601 267.985,278.528 268.570,278.528 270.000 M145.700 275.499 C 148.945 275.566,154.255 275.566,157.500 275.499 C 160.745 275.432,158.090 275.377,151.600 275.377 C 145.110 275.377,142.455 275.432,145.700 275.499 M182.100 275.487 C 182.705 275.578,183.695 275.578,184.300 275.487 C 184.905 275.395,184.410 275.320,183.200 275.320 C 181.990 275.320,181.495 275.395,182.100 275.487 M191.300 275.476 C 191.685 275.576,192.315 275.576,192.700 275.476 C 193.085 275.375,192.770 275.293,192.000 275.293 C 191.230 275.293,190.915 275.375,191.300 275.476 M195.300 275.476 C 195.685 275.576,196.315 275.576,196.700 275.476 C 197.085 275.375,196.770 275.293,196.000 275.293 C 195.230 275.293,194.915 275.375,195.300 275.476 M201.105 275.483 C 201.602 275.579,202.322 275.575,202.705 275.475 C 203.087 275.375,202.680 275.296,201.800 275.301 C 200.920 275.305,200.607 275.387,201.105 275.483 M217.700 275.498 C 219.625 275.571,222.775 275.571,224.700 275.498 C 226.625 275.425,225.050 275.365,221.200 275.365 C 217.350 275.365,215.775 275.425,217.700 275.498 M239.705 275.487 C 240.314 275.579,241.214 275.577,241.705 275.482 C 242.197 275.387,241.700 275.311,240.600 275.314 C 239.500 275.317,239.097 275.395,239.705 275.487 M244.500 275.476 C 244.885 275.576,245.515 275.576,245.900 275.476 C 246.285 275.375,245.970 275.293,245.200 275.293 C 244.430 275.293,244.115 275.375,244.500 275.476 M247.500 275.482 C 247.995 275.578,248.805 275.578,249.300 275.482 C 249.795 275.387,249.390 275.309,248.400 275.309 C 247.410 275.309,247.005 275.387,247.500 275.482 M257.700 275.494 C 258.745 275.576,260.455 275.576,261.500 275.494 C 262.545 275.412,261.690 275.344,259.600 275.344 C 257.510 275.344,256.655 275.412,257.700 275.494 M273.907 275.490 C 274.626 275.579,275.706 275.577,276.307 275.486 C 276.908 275.395,276.320 275.322,275.000 275.324 C 273.680 275.326,273.188 275.401,273.907 275.490 M116.972 286.714 C 116.327 287.327,114.450 289.265,112.800 291.021 C 110.328 293.651,110.518 293.507,113.875 290.207 L 117.950 286.200 195.875 285.998 L 273.800 285.797 195.972 285.698 L 118.144 285.600 116.972 286.714 M295.183 299.300 C 296.841 301.066,297.200 301.384,297.200 301.083 C 297.200 301.019,296.345 300.164,295.300 299.183 L 293.400 297.400 295.183 299.300 M316.752 320.854 C 325.804 329.966,331.991 336.491,331.828 336.754 C 331.677 336.999,331.743 337.200,331.976 337.200 C 333.211 337.200,331.108 334.913,316.900 320.798 L 301.400 305.400 316.752 320.854 M95.200 308.600 C 94.228 309.590,93.523 310.400,93.633 310.400 C 93.743 310.400,94.628 309.590,95.600 308.600 C 96.572 307.610,97.277 306.800,97.167 306.800 C 97.057 306.800,96.172 307.610,95.200 308.600 M83.986 319.746 C 81.684 322.027,79.448 324.322,79.017 324.846 C 78.587 325.371,80.522 323.553,83.317 320.806 C 86.113 318.059,88.400 315.764,88.400 315.706 C 88.400 315.415,87.863 315.907,83.986 319.746 M76.181 327.300 L 74.600 329.000 76.300 327.419 C 77.881 325.948,78.184 325.600,77.881 325.600 C 77.816 325.600,77.051 326.365,76.181 327.300 M72.159 331.555 C 70.862 332.851,69.264 334.516,68.609 335.255 C 67.953 335.995,69.078 334.984,71.109 333.008 C 73.139 331.033,74.800 329.368,74.800 329.308 C 74.800 328.992,74.309 329.410,72.159 331.555 M67.027 337.156 C 66.340 338.268,69.720 338.322,120.609 338.010 C 149.424 337.833,184.070 337.768,197.600 337.865 C 211.130 337.962,229.670 337.881,238.800 337.685 C 253.927 337.360,251.851 337.324,215.400 337.281 C 193.400 337.255,151.280 337.396,121.800 337.594 C 74.319 337.912,68.147 337.885,67.738 337.353 C 67.455 336.984,67.180 336.908,67.027 337.156 " stroke="none" fill="#f4e4c4" fill-rule="evenodd"></path><path id="path4" d="M66.231 63.649 C 66.383 63.897,74.629 72.132,84.554 81.949 C 94.479 91.767,106.118 103.331,110.418 107.646 L 118.236 115.493 199.925 115.438 L 281.615 115.383 307.207 89.793 C 321.283 75.718,332.800 63.977,332.800 63.701 C 332.800 63.301,306.015 63.200,199.376 63.200 C 100.751 63.200,66.025 63.317,66.231 63.649 M331.469 64.135 C 331.632 64.299,320.434 75.765,306.584 89.616 L 281.402 114.800 199.859 114.800 L 118.317 114.800 110.830 107.300 C 97.140 93.586,68.036 65.012,67.615 64.872 C 66.749 64.583,67.252 64.046,68.500 63.925 C 71.345 63.651,331.192 63.859,331.469 64.135 M324.065 87.900 C 315.709 96.205,304.446 107.370,299.036 112.711 C 293.626 118.052,289.200 122.585,289.200 122.784 C 289.200 123.178,300.061 112.525,324.100 88.555 L 339.600 73.098 339.600 200.537 C 339.600 302.326,339.499 327.935,339.100 327.777 C 338.825 327.668,327.530 316.507,314.000 302.974 L 289.400 278.369 289.198 215.085 L 288.995 151.800 288.898 214.939 L 288.800 278.078 291.500 280.888 C 301.098 290.878,339.381 328.774,339.614 328.516 C 340.284 327.774,340.298 72.800,339.629 72.800 C 339.425 72.800,332.421 79.595,324.065 87.900 M59.858 132.936 C 59.582 193.254,59.934 328.804,60.366 328.795 C 60.495 328.792,71.985 317.487,85.900 303.671 L 111.200 278.553 111.200 201.007 L 111.200 123.461 85.900 98.337 C 71.985 84.519,60.495 73.211,60.366 73.207 C 60.237 73.203,60.009 100.081,59.858 132.936 M106.300 119.231 L 110.800 123.695 110.800 200.872 L 110.800 278.049 107.032 281.925 C 103.754 285.296,94.792 294.239,66.955 321.918 L 60.400 328.435 60.400 200.968 L 60.400 73.501 81.100 94.134 C 92.485 105.482,103.825 116.776,106.300 119.231 M122.700 126.675 C 121.783 126.916,121.603 271.791,122.517 273.600 L 123.023 274.600 131.411 274.642 L 139.800 274.684 131.650 274.372 C 126.548 274.177,123.332 273.892,123.050 273.610 C 122.721 273.281,122.572 253.620,122.496 200.180 L 122.392 127.200 199.995 127.200 L 277.598 127.200 277.701 201.100 L 277.803 275.000 277.802 200.800 L 277.800 126.600 200.600 126.546 C 158.140 126.516,123.085 126.574,122.700 126.675 M146.124 275.099 C 149.383 275.167,154.603 275.166,157.724 275.099 C 160.846 275.031,158.180 274.976,151.800 274.977 C 145.420 274.977,142.866 275.032,146.124 275.099 M182.100 275.087 C 182.705 275.178,183.695 275.178,184.300 275.087 C 184.905 274.995,184.410 274.920,183.200 274.920 C 181.990 274.920,181.495 274.995,182.100 275.087 M191.300 275.076 C 191.685 275.176,192.315 275.176,192.700 275.076 C 193.085 274.975,192.770 274.893,192.000 274.893 C 191.230 274.893,190.915 274.975,191.300 275.076 M195.300 275.076 C 195.685 275.176,196.315 275.176,196.700 275.076 C 197.085 274.975,196.770 274.893,196.000 274.893 C 195.230 274.893,194.915 274.975,195.300 275.076 M201.105 275.083 C 201.602 275.179,202.322 275.175,202.705 275.075 C 203.087 274.975,202.680 274.896,201.800 274.901 C 200.920 274.905,200.607 274.987,201.105 275.083 M217.700 275.098 C 219.625 275.171,222.775 275.171,224.700 275.098 C 226.625 275.025,225.050 274.965,221.200 274.965 C 217.350 274.965,215.775 275.025,217.700 275.098 M239.705 275.087 C 240.314 275.179,241.214 275.177,241.705 275.082 C 242.197 274.987,241.700 274.911,240.600 274.914 C 239.500 274.917,239.097 274.995,239.705 275.087 M244.500 275.076 C 244.885 275.176,245.515 275.176,245.900 275.076 C 246.285 274.975,245.970 274.893,245.200 274.893 C 244.430 274.893,244.115 274.975,244.500 275.076 M247.500 275.082 C 247.995 275.178,248.805 275.178,249.300 275.082 C 249.795 274.987,249.390 274.909,248.400 274.909 C 247.410 274.909,247.005 274.987,247.500 275.082 M257.700 275.094 C 258.745 275.176,260.455 275.176,261.500 275.094 C 262.545 275.012,261.690 274.944,259.600 274.944 C 257.510 274.944,256.655 275.012,257.700 275.094 M273.907 275.090 C 274.626 275.179,275.706 275.177,276.307 275.086 C 276.908 274.995,276.320 274.922,275.000 274.924 C 273.680 274.926,273.188 275.001,273.907 275.090 M126.764 286.299 L 118.127 286.415 113.164 291.464 C 110.434 294.240,101.540 303.102,93.400 311.155 C 75.555 328.812,68.038 336.465,68.016 337.000 C 68.002 337.355,247.385 337.419,253.400 337.065 C 254.500 337.001,213.296 336.915,161.837 336.874 L 68.273 336.800 81.700 323.500 C 89.085 316.185,98.068 307.297,101.663 303.750 C 105.259 300.202,110.360 295.041,113.000 292.280 L 117.800 287.259 137.400 286.837 C 148.180 286.605,184.905 286.406,219.011 286.395 L 281.022 286.376 284.811 290.187 C 286.895 292.283,290.470 295.844,292.755 298.099 C 311.624 316.722,330.400 335.604,330.400 335.955 C 330.400 336.237,327.989 336.422,323.300 336.501 L 316.200 336.620 323.900 336.710 C 328.135 336.759,331.600 336.662,331.600 336.494 C 331.600 336.325,320.298 324.895,306.484 311.094 L 281.368 286.000 208.384 286.092 C 168.243 286.142,131.514 286.236,126.764 286.299 " stroke="none" fill="#e9cb6c" fill-rule="evenodd"></path></g></svg>