<svg id="svg" version="1.1" xmlns="http://www.w3.org/2000/svg" xmlns:xlink="http://www.w3.org/1999/xlink" width="400" height="400" viewBox="0, 0, 400,400"><g id="svgg"><path id="path0" d="M77.742 75.293 C 84.495 81.899,96.404 93.670,104.206 101.449 L 118.392 115.593 175.895 115.392 C 207.522 115.281,244.121 115.333,257.227 115.506 L 281.055 115.820 305.874 91.211 C 319.525 77.676,331.366 65.854,332.189 64.941 L 333.685 63.281 199.574 63.281 L 65.464 63.281 77.742 75.293 M336.523 75.560 C 334.590 77.520,323.120 88.910,311.035 100.870 L 289.063 122.617 288.977 198.027 C 288.930 239.503,288.886 274.570,288.879 275.955 L 288.867 278.472 312.136 301.834 C 324.934 314.683,336.492 326.136,337.820 327.285 L 340.234 329.374 340.234 200.625 C 340.234 129.812,340.190 71.902,340.137 71.935 C 340.083 71.968,338.457 73.599,336.523 75.560 M59.782 200.936 L 59.766 329.801 84.469 305.233 C 98.057 291.720,109.678 280.091,110.295 279.390 L 111.417 278.116 111.275 200.521 L 111.133 122.926 107.279 119.373 C 105.160 117.419,93.610 105.977,81.612 93.945 L 59.798 72.070 59.782 200.936 M139.160 126.437 L 121.875 126.571 121.887 200.102 C 121.898 260.624,121.992 273.754,122.419 274.316 C 122.910 274.963,127.091 275.000,200.531 275.000 L 278.125 275.000 278.125 200.781 L 278.125 126.563 276.465 126.558 C 222.972 126.398,152.180 126.336,139.160 126.437 M144.336 286.268 L 117.773 286.403 113.086 291.441 C 110.508 294.212,104.268 300.557,99.219 305.541 C 79.064 325.437,74.640 329.825,70.703 333.827 C 68.447 336.119,66.865 337.840,67.188 337.650 C 67.522 337.453,124.628 337.221,200.195 337.109 L 332.617 336.914 314.844 319.356 C 305.068 309.700,293.535 298.226,289.215 293.861 L 281.360 285.923 226.129 286.028 C 195.752 286.086,158.945 286.194,144.336 286.268 " stroke="none" fill="#04ab04" fill-rule="evenodd"></path><path id="path1" d="M0.000 200.000 L 0.000 400.000 200.000 400.000 L 400.000 400.000 400.000 200.000 L 400.000 0.000 200.000 0.000 L 0.000 0.000 0.000 200.000 M333.594 63.297 C 333.594 63.521,321.838 75.389,307.470 89.670 L 281.347 115.636 199.951 115.673 L 118.555 115.711 95.898 93.268 C 83.438 80.925,71.461 69.172,69.285 67.151 C 67.108 65.130,65.307 63.345,65.281 63.184 C 65.255 63.022,125.615 62.891,199.414 62.891 C 292.128 62.891,333.594 63.016,333.594 63.297 M340.616 200.586 C 340.613 276.944,340.467 329.297,340.258 329.297 C 339.611 329.297,334.737 324.543,311.621 301.364 L 288.672 278.352 288.668 200.602 L 288.664 122.852 311.031 100.690 C 323.333 88.501,334.888 77.032,336.709 75.202 C 338.530 73.372,340.156 71.875,340.321 71.875 C 340.486 71.875,340.619 129.795,340.616 200.586 M85.709 97.960 L 111.328 123.458 111.328 201.034 L 111.328 278.609 85.693 304.051 C 71.594 318.043,59.918 329.546,59.746 329.613 C 59.574 329.679,59.414 271.786,59.390 200.962 C 59.363 119.653,59.484 72.241,59.718 72.326 C 59.923 72.400,71.618 83.935,85.709 97.960 M278.320 200.781 L 278.320 275.195 200.586 275.291 L 122.852 275.386 122.363 274.334 C 121.978 273.504,121.875 257.749,121.875 199.726 L 121.875 126.170 200.098 126.269 L 278.320 126.367 278.320 200.781 M307.234 311.658 C 321.336 325.694,332.805 337.247,332.720 337.332 C 332.585 337.467,66.797 337.778,66.797 337.644 C 66.797 337.509,85.564 318.724,97.198 307.215 C 104.358 300.132,112.004 292.490,114.190 290.234 L 118.164 286.133 199.414 285.938 C 244.102 285.830,280.873 285.831,281.129 285.940 C 281.385 286.049,293.132 297.622,307.234 311.658 " stroke="none" fill="#fbfbfb" fill-rule="evenodd"></path><path id="path2" d="M82.725 63.177 C 83.644 63.260,85.050 63.259,85.850 63.175 C 86.650 63.091,85.898 63.023,84.180 63.025 C 82.461 63.026,81.806 63.095,82.725 63.177 M90.931 63.179 C 92.066 63.258,93.824 63.257,94.837 63.177 C 95.851 63.097,94.922 63.032,92.773 63.033 C 90.625 63.034,89.796 63.100,90.931 63.179 M98.145 63.175 C 98.950 63.259,100.269 63.259,101.074 63.175 C 101.880 63.091,101.221 63.022,99.609 63.022 C 97.998 63.022,97.339 63.091,98.145 63.175 M107.910 63.175 C 108.716 63.259,110.034 63.259,110.840 63.175 C 111.646 63.091,110.986 63.022,109.375 63.022 C 107.764 63.022,107.104 63.091,107.910 63.175 M114.160 63.175 C 114.966 63.259,116.284 63.259,117.090 63.175 C 117.896 63.091,117.236 63.022,115.625 63.022 C 114.014 63.022,113.354 63.091,114.160 63.175 M119.438 63.167 C 119.924 63.260,120.627 63.257,121.001 63.159 C 121.374 63.061,120.977 62.985,120.117 62.989 C 119.258 62.993,118.952 63.073,119.438 63.167 M122.563 63.167 C 123.049 63.260,123.752 63.257,124.126 63.159 C 124.499 63.061,124.102 62.985,123.242 62.989 C 122.383 62.993,122.077 63.073,122.563 63.167 M128.813 63.167 C 129.299 63.260,130.002 63.257,130.376 63.159 C 130.749 63.061,130.352 62.985,129.492 62.989 C 128.633 62.993,128.327 63.073,128.813 63.167 M135.254 63.180 C 136.704 63.255,139.077 63.255,140.527 63.180 C 141.978 63.105,140.791 63.044,137.891 63.044 C 134.990 63.044,133.804 63.105,135.254 63.180 M144.438 63.167 C 144.924 63.260,145.627 63.257,146.001 63.159 C 146.374 63.061,145.977 62.985,145.117 62.989 C 144.258 62.993,143.952 63.073,144.438 63.167 M157.520 63.175 C 158.325 63.259,159.644 63.259,160.449 63.175 C 161.255 63.091,160.596 63.022,158.984 63.022 C 157.373 63.022,156.714 63.091,157.520 63.175 M163.965 63.177 C 164.878 63.259,166.372 63.259,167.285 63.177 C 168.198 63.094,167.451 63.027,165.625 63.027 C 163.799 63.027,163.052 63.094,163.965 63.177 M174.136 63.180 C 175.488 63.257,177.597 63.256,178.824 63.179 C 180.051 63.102,178.945 63.039,176.367 63.040 C 173.789 63.041,172.785 63.104,174.136 63.180 M183.313 63.178 C 184.340 63.259,185.922 63.258,186.828 63.176 C 187.735 63.094,186.895 63.028,184.961 63.029 C 183.027 63.030,182.286 63.097,183.313 63.178 M191.113 63.160 C 191.489 63.258,192.104 63.258,192.480 63.160 C 192.856 63.062,192.549 62.981,191.797 62.981 C 191.045 62.981,190.737 63.062,191.113 63.160 M197.363 63.160 C 197.739 63.258,198.354 63.258,198.730 63.160 C 199.106 63.062,198.799 62.981,198.047 62.981 C 197.295 62.981,196.987 63.062,197.363 63.160 M200.684 63.173 C 201.382 63.260,202.524 63.260,203.223 63.173 C 203.921 63.087,203.350 63.016,201.953 63.016 C 200.557 63.016,199.985 63.087,200.684 63.173 M213.581 63.174 C 214.283 63.261,215.338 63.259,215.925 63.170 C 216.512 63.081,215.937 63.009,214.648 63.012 C 213.359 63.014,212.879 63.087,213.581 63.174 M217.876 63.167 C 218.362 63.260,219.065 63.257,219.438 63.159 C 219.812 63.061,219.414 62.985,218.555 62.989 C 217.695 62.993,217.390 63.073,217.876 63.167 M223.547 63.178 C 224.574 63.259,226.156 63.258,227.063 63.176 C 227.969 63.094,227.129 63.028,225.195 63.029 C 223.262 63.030,222.520 63.097,223.547 63.178 M235.063 63.167 C 235.549 63.260,236.252 63.257,236.626 63.159 C 236.999 63.061,236.602 62.985,235.742 62.989 C 234.883 62.993,234.577 63.073,235.063 63.167 M238.379 63.170 C 238.970 63.260,239.937 63.260,240.527 63.170 C 241.118 63.081,240.635 63.008,239.453 63.008 C 238.271 63.008,237.788 63.081,238.379 63.170 M254.004 63.175 C 254.810 63.259,256.128 63.259,256.934 63.175 C 257.739 63.091,257.080 63.022,255.469 63.022 C 253.857 63.022,253.198 63.091,254.004 63.175 M260.063 63.167 C 260.549 63.260,261.252 63.257,261.626 63.159 C 261.999 63.061,261.602 62.985,260.742 62.989 C 259.883 62.993,259.577 63.073,260.063 63.167 M275.879 63.160 C 276.255 63.258,276.870 63.258,277.246 63.160 C 277.622 63.062,277.314 62.981,276.563 62.981 C 275.811 62.981,275.503 63.062,275.879 63.160 M278.813 63.167 C 279.299 63.260,280.002 63.257,280.376 63.159 C 280.749 63.061,280.352 62.985,279.492 62.989 C 278.633 62.993,278.327 63.073,278.813 63.167 M291.900 63.171 C 292.494 63.261,293.373 63.258,293.853 63.166 C 294.333 63.073,293.848 62.999,292.773 63.002 C 291.699 63.005,291.306 63.081,291.900 63.171 M307.715 63.177 C 308.628 63.259,310.122 63.259,311.035 63.177 C 311.948 63.094,311.201 63.027,309.375 63.027 C 307.549 63.027,306.802 63.094,307.715 63.177 M313.965 63.173 C 314.663 63.260,315.806 63.260,316.504 63.173 C 317.202 63.087,316.631 63.016,315.234 63.016 C 313.838 63.016,313.267 63.087,313.965 63.173 M319.824 63.173 C 320.522 63.260,321.665 63.260,322.363 63.173 C 323.062 63.087,322.490 63.016,321.094 63.016 C 319.697 63.016,319.126 63.087,319.824 63.173 M325.688 63.167 C 326.174 63.260,326.877 63.257,327.251 63.159 C 327.624 63.061,327.227 62.985,326.367 62.989 C 325.508 62.993,325.202 63.073,325.688 63.167 M59.568 195.117 C 59.568 262.363,59.613 289.931,59.668 256.379 C 59.723 222.827,59.723 167.808,59.668 134.114 C 59.613 100.420,59.568 127.871,59.568 195.117 M125.684 126.463 C 127.886 126.533,131.489 126.533,133.691 126.463 C 135.894 126.394,134.092 126.337,129.688 126.337 C 125.283 126.337,123.481 126.394,125.684 126.463 M278.242 178.125 C 278.242 179.307,278.315 179.790,278.405 179.199 C 278.494 178.608,278.494 177.642,278.405 177.051 C 278.315 176.460,278.242 176.943,278.242 178.125 M278.286 252.344 C 278.286 256.104,278.344 257.642,278.416 255.762 C 278.487 253.882,278.487 250.806,278.416 248.926 C 278.344 247.046,278.286 248.584,278.286 252.344 M278.237 263.867 C 278.240 264.941,278.316 265.334,278.405 264.741 C 278.495 264.147,278.493 263.268,278.400 262.788 C 278.307 262.307,278.234 262.793,278.237 263.867 M188.379 275.269 C 188.755 275.368,189.370 275.368,189.746 275.269 C 190.122 275.171,189.814 275.091,189.063 275.091 C 188.311 275.091,188.003 275.171,188.379 275.269 M191.309 275.276 C 191.792 275.369,192.583 275.369,193.066 275.276 C 193.550 275.183,193.154 275.106,192.188 275.106 C 191.221 275.106,190.825 275.183,191.309 275.276 M200.879 275.280 C 201.470 275.369,202.437 275.369,203.027 275.280 C 203.618 275.190,203.135 275.117,201.953 275.117 C 200.771 275.117,200.288 275.190,200.879 275.280 M212.598 275.293 C 217.271 275.355,224.917 275.355,229.590 275.293 C 234.263 275.230,230.439 275.179,221.094 275.179 C 211.748 275.179,207.925 275.230,212.598 275.293 M239.347 275.282 C 240.040 275.368,241.271 275.370,242.081 275.285 C 242.892 275.201,242.324 275.130,240.820 275.128 C 239.316 275.126,238.653 275.196,239.347 275.282 M244.438 275.276 C 244.924 275.370,245.627 275.366,246.001 275.268 C 246.374 275.171,245.977 275.094,245.117 275.099 C 244.258 275.103,243.952 275.183,244.438 275.276 M247.559 275.276 C 248.042 275.369,248.833 275.369,249.316 275.276 C 249.800 275.183,249.404 275.106,248.438 275.106 C 247.471 275.106,247.075 275.183,247.559 275.276 M256.562 275.291 C 258.344 275.363,261.157 275.363,262.812 275.290 C 264.466 275.217,263.008 275.158,259.570 275.158 C 256.133 275.159,254.779 275.218,256.562 275.291 M269.629 275.269 C 270.005 275.368,270.620 275.368,270.996 275.269 C 271.372 275.171,271.064 275.091,270.313 275.091 C 269.561 275.091,269.253 275.171,269.629 275.269 M273.350 275.287 C 274.269 275.369,275.675 275.368,276.475 275.284 C 277.275 275.200,276.523 275.132,274.805 275.134 C 273.086 275.135,272.431 275.204,273.350 275.287 M289.063 293.945 C 289.791 294.697,290.476 295.313,290.583 295.313 C 290.690 295.313,290.182 294.697,289.453 293.945 C 288.724 293.193,288.040 292.578,287.933 292.578 C 287.825 292.578,288.334 293.193,289.063 293.945 M292.188 297.070 C 292.916 297.822,293.601 298.438,293.708 298.438 C 293.815 298.438,293.307 297.822,292.578 297.070 C 291.849 296.318,291.165 295.703,291.058 295.703 C 290.950 295.703,291.459 296.318,292.188 297.070 M100.391 304.102 C 98.790 305.713,97.568 307.031,97.676 307.031 C 97.783 307.031,99.181 305.713,100.781 304.102 C 102.382 302.490,103.603 301.172,103.496 301.172 C 103.389 301.172,101.991 302.490,100.391 304.102 " stroke="none" fill="#9bdfa3" fill-rule="evenodd"></path><path id="path3" d="M69.829 63.167 C 70.315 63.260,71.018 63.257,71.391 63.159 C 71.765 63.061,71.367 62.985,70.508 62.989 C 69.648 62.993,69.343 63.073,69.829 63.167 M104.594 63.167 C 105.080 63.260,105.783 63.257,106.157 63.159 C 106.530 63.061,106.133 62.985,105.273 62.989 C 104.414 62.993,104.108 63.073,104.594 63.167 M229.597 63.174 C 230.299 63.261,231.354 63.259,231.941 63.170 C 232.528 63.081,231.953 63.009,230.664 63.012 C 229.375 63.014,228.895 63.087,229.597 63.174 M250.293 63.166 C 250.776 63.259,251.567 63.259,252.051 63.166 C 252.534 63.073,252.139 62.997,251.172 62.997 C 250.205 62.997,249.810 63.073,250.293 63.166 M297.173 63.167 C 297.658 63.260,298.362 63.257,298.735 63.159 C 299.108 63.061,298.711 62.985,297.852 62.989 C 296.992 62.993,296.687 63.073,297.173 63.167 M340.427 200.391 C 340.427 269.463,340.472 297.720,340.527 263.184 C 340.582 228.647,340.582 172.134,340.527 137.598 C 340.472 103.062,340.427 131.318,340.427 200.391 M315.421 96.191 L 312.305 99.414 315.527 96.298 C 317.300 94.585,318.750 93.134,318.750 93.076 C 318.750 92.791,318.314 93.198,315.421 96.191 M288.863 194.141 C 288.863 233.135,288.909 249.087,288.965 229.590 C 289.021 210.093,289.021 178.188,288.965 158.691 C 288.909 139.194,288.863 155.146,288.863 194.141 M111.110 136.133 C 111.110 142.363,111.164 144.857,111.230 141.675 C 111.296 138.493,111.295 133.396,111.229 130.347 C 111.164 127.299,111.110 129.902,111.110 136.133 M278.309 151.367 C 278.309 165.117,278.358 170.686,278.418 163.741 C 278.478 156.797,278.478 145.547,278.418 138.741 C 278.358 131.936,278.309 137.617,278.309 151.367 M278.231 260.547 C 278.231 261.514,278.308 261.909,278.401 261.426 C 278.494 260.942,278.494 260.151,278.401 259.668 C 278.308 259.185,278.231 259.580,278.231 260.547 M278.274 270.117 C 278.275 272.695,278.338 273.699,278.415 272.348 C 278.491 270.997,278.490 268.887,278.413 267.660 C 278.336 266.434,278.273 267.539,278.274 270.117 M106.641 297.852 C 105.692 298.818,105.003 299.609,105.111 299.609 C 105.218 299.609,106.082 298.818,107.031 297.852 C 107.980 296.885,108.669 296.094,108.561 296.094 C 108.454 296.094,107.589 296.885,106.641 297.852 M149.871 337.402 C 182.563 337.457,236.177 337.457,269.011 337.402 C 301.846 337.347,275.098 337.302,209.570 337.302 C 144.043 337.302,117.178 337.347,149.871 337.402 " stroke="none" fill="#bce4bd" fill-rule="evenodd"></path><path id="path4" d="M324.605 87.012 L 318.555 93.164 324.707 87.114 C 328.091 83.787,330.859 81.018,330.859 80.962 C 330.859 80.683,330.225 81.296,324.605 87.012 M303.315 108.301 L 298.242 113.477 303.418 108.404 C 308.226 103.692,308.771 103.125,308.490 103.125 C 308.434 103.125,306.105 105.454,303.315 108.301 M111.719 109.180 C 113.535 111.006,115.110 112.500,115.217 112.500 C 115.325 112.500,113.926 111.006,112.109 109.180 C 110.293 107.354,108.718 105.859,108.611 105.859 C 108.504 105.859,109.902 107.354,111.719 109.180 M97.656 110.352 C 99.040 111.748,100.261 112.891,100.368 112.891 C 100.475 112.891,99.431 111.748,98.047 110.352 C 96.663 108.955,95.442 107.813,95.335 107.813 C 95.228 107.813,96.272 108.955,97.656 110.352 M100.781 113.403 C 100.781 113.471,101.353 114.042,102.051 114.673 L 103.320 115.820 102.173 114.551 C 101.104 113.367,100.781 113.102,100.781 113.403 M175.909 115.527 C 188.978 115.584,210.247 115.584,223.175 115.527 C 236.102 115.470,225.410 115.423,199.414 115.423 C 173.418 115.424,162.841 115.470,175.909 115.527 M138.581 126.455 C 139.283 126.542,140.338 126.540,140.925 126.451 C 141.512 126.362,140.938 126.291,139.648 126.293 C 138.359 126.295,137.879 126.368,138.581 126.455 M147.772 126.463 C 149.447 126.536,152.083 126.536,153.631 126.462 C 155.179 126.388,153.809 126.328,150.586 126.328 C 147.363 126.329,146.097 126.389,147.772 126.463 M225.688 126.448 C 226.174 126.542,226.877 126.538,227.251 126.440 C 227.624 126.342,227.227 126.266,226.367 126.270 C 225.508 126.275,225.202 126.355,225.688 126.448 M229.994 126.460 C 231.129 126.539,232.887 126.539,233.900 126.458 C 234.913 126.378,233.984 126.314,231.836 126.315 C 229.688 126.316,228.858 126.381,229.994 126.460 M253.835 126.464 C 258.415 126.527,265.798 126.527,270.241 126.464 C 274.685 126.402,270.938 126.351,261.914 126.351 C 252.891 126.351,249.255 126.402,253.835 126.464 M278.311 212.305 C 278.311 228.848,278.359 235.558,278.418 227.217 C 278.477 218.876,278.477 205.341,278.418 197.139 C 278.359 188.937,278.311 195.762,278.311 212.305 M288.813 269.922 C 288.813 271.963,288.879 272.798,288.959 271.777 C 289.039 270.757,289.039 269.087,288.959 268.066 C 288.879 267.046,288.813 267.881,288.813 269.922 M137.178 275.293 C 145.058 275.352,158.066 275.352,166.084 275.293 C 174.103 275.234,167.656 275.185,151.758 275.185 C 135.859 275.185,129.299 275.234,137.178 275.293 M181.934 275.283 C 182.632 275.369,183.774 275.369,184.473 275.283 C 185.171 275.196,184.600 275.125,183.203 275.125 C 181.807 275.125,181.235 275.196,181.934 275.283 M195.219 275.276 C 195.705 275.370,196.408 275.366,196.782 275.268 C 197.155 275.171,196.758 275.094,195.898 275.099 C 195.039 275.103,194.733 275.183,195.219 275.276 M131.571 286.230 C 138.946 286.290,150.899 286.290,158.134 286.230 C 165.369 286.171,159.336 286.122,144.727 286.122 C 130.117 286.122,124.197 286.171,131.571 286.230 M295.117 300.000 C 295.956 300.859,296.731 301.563,296.838 301.563 C 296.946 301.563,296.347 300.859,295.508 300.000 C 294.669 299.141,293.894 298.438,293.787 298.438 C 293.679 298.438,294.278 299.141,295.117 300.000 M95.493 309.082 L 93.555 311.133 95.605 309.194 C 96.733 308.128,97.656 307.205,97.656 307.144 C 97.656 306.852,97.294 307.176,95.493 309.082 M76.563 327.539 C 75.614 328.506,74.925 329.297,75.033 329.297 C 75.140 329.297,76.004 328.506,76.953 327.539 C 77.902 326.572,78.590 325.781,78.483 325.781 C 78.376 325.781,77.511 326.572,76.563 327.539 M88.379 337.379 C 88.755 337.477,89.370 337.477,89.746 337.379 C 90.122 337.280,89.814 337.200,89.063 337.200 C 88.311 337.200,88.003 337.280,88.379 337.379 " stroke="none" fill="#7cd47c" fill-rule="evenodd"></path></g></svg>