<svg id="svg" version="1.1" xmlns="http://www.w3.org/2000/svg" xmlns:xlink="http://www.w3.org/1999/xlink" width="400" height="400" viewBox="0, 0, 400,400"><g id="svgg"><path id="path0" d="M91.410 33.413 C 88.872 34.700,87.536 35.991,86.348 38.302 L 85.400 40.147 85.418 87.773 C 85.438 138.608,85.379 137.038,87.363 139.739 C 89.460 142.593,93.743 143.597,103.840 143.599 L 109.079 143.600 109.338 139.700 C 109.480 137.555,109.597 121.383,109.598 103.761 C 109.600 76.474,109.687 71.549,110.184 70.552 C 111.347 68.221,113.715 65.928,116.165 64.760 L 118.600 63.600 156.400 63.500 L 194.200 63.400 194.269 48.204 C 194.319 36.963,194.215 32.931,193.869 32.710 C 193.611 32.546,170.900 32.410,143.400 32.408 L 93.400 32.403 91.410 33.413 M205.467 32.667 C 205.320 32.813,205.200 39.833,205.200 48.267 L 205.200 63.600 241.500 63.608 C 286.973 63.618,285.045 63.357,289.429 70.092 L 290.400 71.584 290.447 104.892 C 290.472 123.211,290.607 139.370,290.747 140.800 L 291.000 143.400 295.800 143.522 C 300.858 143.651,308.337 142.997,308.980 142.370 C 309.189 142.167,309.639 141.994,309.980 141.987 C 310.938 141.966,312.143 140.781,313.428 138.594 L 314.600 136.600 314.600 88.361 C 314.600 35.617,314.777 39.570,312.263 36.280 C 311.624 35.444,310.178 34.230,309.050 33.583 L 307.000 32.408 256.367 32.404 C 228.518 32.402,205.613 32.520,205.467 32.667 M122.400 73.575 L 119.000 73.800 118.912 108.400 C 118.827 141.680,118.852 143.034,119.572 143.895 L 120.319 144.789 157.060 144.895 L 193.800 145.000 193.902 109.100 L 194.004 73.200 159.902 73.275 C 141.146 73.316,124.270 73.451,122.400 73.575 M205.467 73.467 C 205.320 73.613,205.200 89.715,205.200 109.249 L 205.200 144.764 206.551 145.017 C 209.392 145.550,278.127 145.004,279.256 144.440 C 281.231 143.452,281.200 144.026,281.200 108.451 L 281.200 74.939 280.274 74.070 L 279.348 73.200 242.541 73.200 C 222.297 73.200,205.613 73.320,205.467 73.467 M106.650 167.886 C 103.107 168.430,103.120 168.257,103.302 211.800 C 103.464 250.486,103.499 251.190,105.329 252.557 C 107.725 254.347,293.724 254.409,295.513 252.620 C 296.577 251.556,296.758 245.333,296.773 209.400 C 296.789 170.295,296.790 170.333,295.023 168.566 C 294.300 167.843,111.227 167.183,106.650 167.886 M132.600 277.358 C 125.579 278.760,125.201 280.209,124.944 306.684 L 124.769 324.768 125.982 327.361 C 128.640 333.048,129.460 333.199,157.650 333.199 L 178.699 333.200 180.557 332.161 C 186.144 329.039,186.140 329.056,186.143 304.800 C 186.145 281.096,185.982 280.360,180.130 277.609 C 178.043 276.628,137.331 276.413,132.600 277.358 M225.800 277.002 C 225.580 277.078,224.008 277.259,222.306 277.404 C 219.346 277.656,219.124 277.746,217.190 279.485 C 213.637 282.680,213.809 281.389,213.804 304.800 C 213.799 328.107,213.635 326.826,217.058 330.153 C 220.261 333.266,220.404 333.281,245.200 333.113 C 270.362 332.943,269.912 333.033,273.528 327.400 L 274.555 325.800 274.447 304.600 L 274.340 283.400 273.182 281.600 C 271.867 279.556,269.822 278.028,267.434 277.306 C 265.941 276.855,227.042 276.571,225.800 277.002 M127.000 343.540 C 123.160 344.789,122.952 349.502,126.669 351.055 C 128.637 351.877,183.009 351.858,184.981 351.034 C 187.970 349.785,188.111 345.305,185.208 343.804 C 183.987 343.173,128.898 342.923,127.000 343.540 M214.536 343.881 C 211.464 345.412,211.622 349.273,214.823 350.899 C 216.489 351.746,268.549 351.988,272.377 351.168 C 276.046 350.381,277.494 345.383,274.401 344.182 C 271.413 343.022,216.811 342.748,214.536 343.881 " stroke="none" fill="#ec2c24" fill-rule="evenodd"></path><path id="path1" d="M0.000 200.000 L 0.000 400.000 200.000 400.000 L 400.000 400.000 400.000 200.000 L 400.000 0.000 200.000 0.000 L 0.000 0.000 0.000 200.000 M200.000 392.002 L 396.200 392.002 396.401 198.901 C 396.511 92.696,396.658 6.430,396.727 7.200 C 397.416 14.870,396.830 394.169,396.127 395.110 C 395.698 395.686,394.818 396.310,394.173 396.497 C 392.170 397.078,6.638 396.996,5.235 396.415 C 4.506 396.113,3.889 395.457,3.628 394.707 C 3.192 393.456,3.084 297.120,3.298 99.000 C 3.362 39.390,3.472 75.596,3.599 198.701 L 3.800 392.002 200.000 392.002 M195.105 47.800 C 195.202 62.487,195.155 63.841,194.529 64.300 C 193.995 64.692,185.649 64.801,156.024 64.802 C 123.253 64.805,118.047 64.885,117.054 65.402 C 116.424 65.731,115.733 66.000,115.519 66.000 C 114.847 66.000,111.630 69.564,110.898 71.117 C 110.255 72.483,110.184 75.425,110.000 108.400 L 109.800 144.200 102.600 144.324 C 92.083 144.506,86.000 142.517,86.000 138.896 C 86.000 138.660,85.786 138.395,85.524 138.308 C 84.746 138.049,84.431 126.574,84.166 88.800 C 83.803 37.257,83.852 36.820,90.420 32.800 C 91.607 32.073,112.853 31.778,163.000 31.791 L 195.000 31.800 195.105 47.800 M309.472 32.669 C 314.412 35.838,315.085 37.466,315.589 47.466 C 316.062 56.851,316.101 120.974,315.639 130.200 C 315.017 142.616,312.568 144.531,297.596 144.309 L 290.200 144.200 290.000 108.400 L 289.800 72.600 288.642 70.630 C 287.297 68.341,285.717 66.704,283.893 65.707 C 282.686 65.047,280.017 64.993,243.886 64.889 L 205.171 64.777 204.786 63.763 C 204.258 62.375,204.274 33.382,204.803 32.394 C 205.419 31.244,307.670 31.512,309.472 32.669 M195.000 109.200 L 195.000 145.800 160.800 145.921 C 116.115 146.078,118.945 146.367,118.077 141.554 C 117.403 137.817,117.397 76.707,118.070 74.760 C 118.929 72.277,116.511 72.415,157.400 72.511 L 195.000 72.600 195.000 109.200 M280.791 73.105 C 282.351 74.559,282.400 75.389,282.398 100.326 C 282.395 130.717,281.931 143.432,280.787 144.498 C 279.378 145.811,274.317 145.994,239.314 145.997 C 206.022 146.000,205.219 145.982,204.814 145.226 C 204.367 144.391,204.210 74.948,204.652 73.300 L 204.893 72.400 242.463 72.400 C 277.803 72.400,280.078 72.442,280.791 73.105 M291.685 166.947 C 298.132 167.861,297.747 164.699,297.507 214.800 C 297.323 253.409,297.379 252.369,295.409 253.646 C 294.338 254.340,253.928 254.730,184.000 254.720 C 106.632 254.709,103.600 254.607,103.600 252.034 C 103.600 251.663,103.375 251.135,103.100 250.860 C 102.707 250.466,102.600 241.810,102.600 210.280 L 102.600 170.200 103.513 168.919 C 105.366 166.322,99.090 166.485,198.200 166.468 C 267.566 166.456,288.999 166.566,291.685 166.947 M180.300 276.700 C 180.392 276.975,180.767 277.203,181.133 277.206 C 181.932 277.214,183.830 278.860,185.314 280.833 C 186.828 282.845,187.365 289.165,187.385 305.200 C 187.410 326.167,186.746 329.352,181.677 332.552 L 180.016 333.600 155.857 333.600 C 130.171 333.600,130.268 333.607,127.955 331.693 C 126.897 330.818,125.200 328.199,125.200 327.441 C 125.200 327.125,124.976 326.792,124.701 326.700 C 123.973 326.458,123.972 285.469,124.700 284.740 C 124.975 284.465,125.200 283.732,125.200 283.112 C 125.200 281.034,128.366 277.200,130.082 277.200 C 130.389 277.200,130.811 277.034,131.020 276.831 C 131.973 275.905,179.993 275.777,180.300 276.700 M269.400 276.880 C 272.229 278.482,274.153 280.874,275.149 284.028 C 275.698 285.767,275.789 324.839,275.247 325.905 C 275.052 326.287,274.681 327.060,274.420 327.623 C 273.733 329.109,271.566 331.359,269.667 332.558 L 268.016 333.600 244.214 333.600 L 220.412 333.600 218.466 332.403 C 216.428 331.149,214.400 329.014,214.400 328.123 C 214.400 327.835,214.242 327.600,214.049 327.600 C 212.474 327.600,211.637 293.123,213.031 285.700 C 213.413 283.665,213.877 282.000,214.063 282.000 C 214.248 282.000,214.400 281.759,214.400 281.464 C 214.400 280.729,217.491 277.632,218.765 277.091 C 221.715 275.836,267.222 275.646,269.400 276.880 M175.200 342.426 L 185.800 342.853 187.100 344.293 C 189.185 346.603,188.622 349.856,185.839 351.576 C 184.210 352.583,165.227 352.966,140.654 352.487 L 125.908 352.200 124.554 350.633 C 122.710 348.499,122.621 345.822,124.339 344.125 C 126.222 342.264,150.802 341.443,175.200 342.426 M265.897 342.648 L 274.394 342.891 275.597 344.121 C 278.313 346.899,276.571 351.481,272.509 352.244 C 271.679 352.400,258.580 352.544,243.400 352.564 L 215.800 352.600 214.341 351.693 C 211.331 349.821,210.577 346.261,212.739 344.125 C 214.796 342.093,230.867 341.646,265.897 342.648 " stroke="none" fill="#fbfbfb" fill-rule="evenodd"></path><path id="path2" d="M282.127 32.300 C 286.927 32.364,294.667 32.363,299.327 32.299 C 303.987 32.236,300.060 32.183,290.600 32.183 C 281.140 32.183,277.327 32.236,282.127 32.300 M194.948 36.800 C 194.948 39.110,195.014 40.055,195.095 38.900 C 195.176 37.745,195.176 35.855,195.095 34.700 C 195.014 33.545,194.948 34.490,194.948 36.800 M161.891 64.289 C 162.601 64.377,163.861 64.379,164.691 64.292 C 165.521 64.205,164.940 64.133,163.400 64.131 C 161.860 64.129,161.181 64.200,161.891 64.289 M237.500 64.299 C 239.975 64.369,244.025 64.369,246.500 64.299 C 248.975 64.228,246.950 64.171,242.000 64.171 C 237.050 64.171,235.025 64.228,237.500 64.299 M128.300 72.698 C 130.115 72.772,133.085 72.772,134.900 72.698 C 136.715 72.623,135.230 72.563,131.600 72.563 C 127.970 72.563,126.485 72.623,128.300 72.698 M117.788 104.000 C 117.788 117.530,117.838 123.065,117.900 116.300 C 117.961 109.535,117.961 98.465,117.900 91.700 C 117.838 84.935,117.788 90.470,117.788 104.000 M194.986 108.800 C 194.986 120.130,195.037 124.765,195.100 119.100 C 195.162 113.435,195.162 104.165,195.100 98.500 C 195.037 92.835,194.986 97.470,194.986 108.800 M109.720 141.600 C 109.720 142.810,109.795 143.305,109.887 142.700 C 109.978 142.095,109.978 141.105,109.887 140.500 C 109.795 139.895,109.720 140.390,109.720 141.600 M290.120 141.600 C 290.120 142.810,290.195 143.305,290.287 142.700 C 290.378 142.095,290.378 141.105,290.287 140.500 C 290.195 139.895,290.120 140.390,290.120 141.600 M103.300 144.294 C 104.345 144.376,106.055 144.376,107.100 144.294 C 108.145 144.212,107.290 144.144,105.200 144.144 C 103.110 144.144,102.255 144.212,103.300 144.294 M293.100 144.295 C 294.255 144.376,296.145 144.376,297.300 144.295 C 298.455 144.214,297.510 144.148,295.200 144.148 C 292.890 144.148,291.945 144.214,293.100 144.295 M108.900 167.076 C 109.285 167.176,109.915 167.176,110.300 167.076 C 110.685 166.975,110.370 166.893,109.600 166.893 C 108.830 166.893,108.515 166.975,108.900 167.076 M247.723 254.299 C 250.320 254.369,254.460 254.368,256.923 254.298 C 259.385 254.228,257.260 254.171,252.200 254.172 C 247.140 254.172,245.125 254.229,247.723 254.299 M274.909 286.800 C 274.909 287.790,274.987 288.195,275.082 287.700 C 275.178 287.205,275.178 286.395,275.082 285.900 C 274.987 285.405,274.909 285.810,274.909 286.800 M212.983 304.800 C 212.983 314.150,213.036 317.975,213.100 313.300 C 213.164 308.625,213.164 300.975,213.100 296.300 C 213.036 291.625,212.983 295.450,212.983 304.800 M186.501 290.600 C 186.505 291.480,186.587 291.793,186.683 291.295 C 186.779 290.798,186.775 290.078,186.675 289.695 C 186.575 289.313,186.496 289.720,186.501 290.600 M186.972 305.400 C 186.972 310.460,187.029 312.475,187.099 309.877 C 187.169 307.280,187.168 303.140,187.098 300.677 C 187.028 298.215,186.971 300.340,186.972 305.400 M275.372 306.800 C 275.372 311.970,275.429 314.085,275.499 311.500 C 275.568 308.915,275.568 304.685,275.499 302.100 C 275.429 299.515,275.372 301.630,275.372 306.800 M186.520 319.200 C 186.520 320.410,186.595 320.905,186.687 320.300 C 186.778 319.695,186.778 318.705,186.687 318.100 C 186.595 317.495,186.520 317.990,186.520 319.200 M275.337 322.200 C 275.339 323.960,275.409 324.630,275.493 323.689 C 275.578 322.749,275.577 321.309,275.491 320.489 C 275.405 319.670,275.336 320.440,275.337 322.200 M264.705 333.483 C 265.202 333.579,265.922 333.575,266.305 333.475 C 266.687 333.375,266.280 333.296,265.400 333.301 C 264.520 333.305,264.207 333.387,264.705 333.483 M148.500 342.699 C 152.185 342.765,158.215 342.765,161.900 342.699 C 165.585 342.633,162.570 342.579,155.200 342.579 C 147.830 342.579,144.815 342.633,148.500 342.699 M230.100 342.699 C 234.005 342.765,240.395 342.765,244.300 342.699 C 248.205 342.634,245.010 342.580,237.200 342.580 C 229.390 342.580,226.195 342.634,230.100 342.699 M265.907 343.090 C 266.626 343.179,267.706 343.177,268.307 343.086 C 268.908 342.995,268.320 342.922,267.000 342.924 C 265.680 342.926,265.188 343.001,265.907 343.090 M139.320 352.298 C 141.255 352.372,144.315 352.371,146.120 352.297 C 147.924 352.223,146.340 352.163,142.600 352.164 C 138.860 352.164,137.384 352.225,139.320 352.298 M168.900 352.297 C 170.385 352.374,172.815 352.374,174.300 352.297 C 175.785 352.220,174.570 352.157,171.600 352.157 C 168.630 352.157,167.415 352.220,168.900 352.297 M224.100 352.291 C 224.925 352.378,226.275 352.378,227.100 352.291 C 227.925 352.205,227.250 352.134,225.600 352.134 C 223.950 352.134,223.275 352.205,224.100 352.291 M257.682 352.296 C 259.158 352.373,261.678 352.373,263.282 352.297 C 264.887 352.221,263.680 352.158,260.600 352.158 C 257.520 352.157,256.207 352.219,257.682 352.296 M6.572 392.845 C 6.421 393.089,6.546 393.446,6.849 393.638 C 7.576 394.097,392.425 394.098,393.151 393.638 C 395.081 392.417,392.417 392.400,200.000 392.400 C 58.714 392.400,6.773 392.519,6.572 392.845 " stroke="none" fill="#d1b6b5" fill-rule="evenodd"></path><path id="path3" d="M91.279 32.836 C 89.227 33.798,86.718 36.210,85.836 38.068 C 83.838 42.279,83.892 133.337,85.896 138.109 C 86.624 139.843,89.516 142.673,90.876 142.983 C 91.384 143.099,92.610 143.371,93.600 143.587 C 94.590 143.803,98.568 143.985,102.441 143.990 L 109.481 144.000 109.738 140.700 C 109.880 138.885,109.996 122.690,109.998 104.712 C 110.000 67.875,109.740 71.007,113.093 67.525 C 116.177 64.323,113.493 64.529,156.397 64.210 C 177.406 64.055,194.746 63.833,194.932 63.719 C 195.540 63.343,194.962 32.749,194.339 32.354 C 193.000 31.505,93.121 31.972,91.279 32.836 M204.983 32.501 C 204.877 32.777,204.837 39.932,204.895 48.401 L 205.000 63.800 242.200 64.068 C 285.769 64.382,284.425 64.251,287.628 68.498 C 290.209 71.919,290.000 68.724,290.002 104.710 C 290.004 122.689,290.120 138.885,290.262 140.700 L 290.519 144.000 297.359 144.000 C 309.791 144.000,313.846 142.129,314.898 135.907 C 316.106 128.763,315.564 40.745,314.297 38.335 C 312.830 35.543,309.291 32.394,307.631 32.404 C 307.284 32.406,307.923 32.937,309.050 33.583 C 310.178 34.230,311.624 35.444,312.263 36.280 C 314.777 39.570,314.600 35.617,314.600 88.361 L 314.600 136.600 313.428 138.594 C 312.143 140.781,310.938 141.966,309.980 141.987 C 309.639 141.994,309.189 142.167,308.980 142.370 C 308.337 142.997,300.858 143.651,295.800 143.522 L 291.000 143.400 290.747 140.800 C 290.607 139.370,290.472 123.211,290.447 104.892 L 290.400 71.584 289.429 70.092 C 285.045 63.357,286.974 63.618,241.495 63.608 L 205.191 63.600 205.295 48.100 L 205.400 32.600 239.600 32.397 L 273.800 32.193 239.487 32.097 C 212.294 32.020,205.135 32.104,204.983 32.501 M193.869 32.710 C 194.215 32.931,194.319 36.963,194.269 48.204 L 194.200 63.400 156.400 63.500 L 118.600 63.600 116.165 64.760 C 113.715 65.928,111.347 68.221,110.184 70.552 C 109.687 71.549,109.600 76.474,109.598 103.761 C 109.597 121.383,109.480 137.555,109.338 139.700 L 109.079 143.600 103.840 143.599 C 93.743 143.597,89.460 142.593,87.363 139.739 C 85.379 137.038,85.438 138.608,85.418 87.773 L 85.400 40.147 86.348 38.302 C 87.536 35.991,88.872 34.700,91.410 33.413 L 93.400 32.403 143.400 32.408 C 170.900 32.410,193.611 32.546,193.869 32.710 M128.913 72.786 C 120.707 72.975,119.544 73.083,118.913 73.714 C 118.240 74.389,118.200 76.345,118.200 108.585 C 118.200 147.992,117.861 144.756,122.041 145.260 C 124.784 145.591,193.317 145.683,194.167 145.357 C 195.258 144.939,195.119 73.399,194.026 72.814 C 193.222 72.384,147.187 72.363,128.913 72.786 M205.473 72.900 C 204.840 73.365,204.800 75.910,204.897 109.400 L 205.000 145.400 237.200 145.522 C 276.003 145.670,278.894 145.567,280.475 143.986 L 281.600 142.862 281.600 108.666 L 281.600 74.471 280.369 73.436 L 279.139 72.400 242.646 72.400 C 214.081 72.400,206.005 72.509,205.473 72.900 M193.902 109.100 L 193.800 145.000 157.060 144.895 L 120.319 144.789 119.572 143.895 C 118.852 143.034,118.827 141.680,118.912 108.400 L 119.000 73.800 122.400 73.575 C 124.270 73.451,141.146 73.316,159.902 73.275 L 194.004 73.200 193.902 109.100 M280.274 74.070 L 281.200 74.939 281.200 108.451 C 281.200 144.026,281.231 143.452,279.256 144.440 C 278.127 145.004,209.392 145.550,206.551 145.017 L 205.200 144.764 205.200 109.249 C 205.200 89.715,205.320 73.613,205.467 73.467 C 205.613 73.320,222.297 73.200,242.541 73.200 L 279.348 73.200 280.274 74.070 M108.343 167.215 C 102.366 167.913,102.757 164.747,102.890 211.410 C 103.011 253.690,102.896 251.796,105.449 253.469 C 107.241 254.643,292.215 254.545,294.624 253.369 C 297.210 252.107,297.132 253.423,297.168 210.287 C 297.207 163.250,298.072 167.939,289.220 167.230 C 282.933 166.727,112.643 166.713,108.343 167.215 M295.023 168.566 C 296.790 170.333,296.789 170.295,296.773 209.400 C 296.758 245.333,296.577 251.556,295.513 252.620 C 294.556 253.578,179.808 254.320,129.729 253.692 C 103.384 253.361,104.634 253.532,103.828 250.157 C 103.236 247.680,103.045 175.612,103.621 172.200 C 104.136 169.153,104.829 168.166,106.650 167.886 C 111.227 167.183,294.300 167.843,295.023 168.566 M131.400 277.029 C 124.878 279.363,124.400 281.450,124.400 307.586 L 124.400 325.178 125.477 327.453 C 128.305 333.425,127.600 333.284,155.600 333.490 L 178.600 333.658 180.683 332.571 C 186.621 329.473,186.586 329.638,186.590 304.800 C 186.593 280.610,186.528 280.302,180.739 277.369 L 178.827 276.400 155.913 276.428 C 137.099 276.451,132.714 276.559,131.400 277.029 M220.904 276.939 C 218.384 277.494,215.606 279.673,214.296 282.123 C 213.400 283.800,213.400 283.805,213.400 305.000 L 213.400 326.200 214.453 327.817 C 215.648 329.654,217.801 331.652,219.705 332.693 C 221.719 333.793,266.706 333.779,268.724 332.677 C 270.908 331.485,273.068 329.292,274.211 327.107 L 275.288 325.046 275.120 304.423 C 274.872 274.169,277.250 276.382,245.051 276.439 C 230.007 276.465,222.334 276.624,220.904 276.939 M180.130 277.609 C 185.982 280.360,186.145 281.096,186.143 304.800 C 186.140 329.056,186.144 329.039,180.557 332.161 L 178.699 333.200 157.650 333.199 C 129.460 333.199,128.640 333.048,125.982 327.361 L 124.769 324.768 124.944 306.684 C 125.201 280.209,125.579 278.760,132.600 277.358 C 137.331 276.413,178.043 276.628,180.130 277.609 M267.434 277.306 C 269.822 278.028,271.867 279.556,273.182 281.600 L 274.340 283.400 274.447 304.600 L 274.555 325.800 273.528 327.400 C 269.912 333.033,270.362 332.943,245.200 333.113 C 220.404 333.281,220.261 333.266,217.058 330.153 C 213.635 326.826,213.799 328.107,213.804 304.800 C 213.809 281.389,213.637 282.680,217.190 279.485 C 219.124 277.746,219.346 277.656,222.306 277.404 C 224.008 277.259,225.580 277.078,225.800 277.002 C 227.042 276.571,265.941 276.855,267.434 277.306 M142.100 343.100 C 149.745 343.161,162.255 343.161,169.900 343.100 C 177.545 343.039,171.290 342.989,156.000 342.989 C 140.710 342.989,134.455 343.039,142.100 343.100 M228.100 343.100 C 234.865 343.161,245.935 343.161,252.700 343.100 C 259.465 343.038,253.930 342.988,240.400 342.988 C 226.870 342.988,221.335 343.038,228.100 343.100 M124.675 344.322 C 122.683 346.401,123.431 350.072,126.132 351.468 C 128.254 352.566,183.996 352.452,185.507 351.347 C 188.782 348.954,188.212 343.107,184.714 343.216 C 184.431 343.225,184.690 343.498,185.290 343.824 C 188.114 345.356,187.924 349.804,184.981 351.034 C 183.009 351.858,128.637 351.877,126.669 351.055 C 122.952 349.502,123.160 344.789,127.000 343.540 C 127.691 343.315,127.661 343.274,126.775 343.240 C 126.137 343.215,125.343 343.624,124.675 344.322 M213.757 343.663 C 211.371 344.819,211.186 348.360,213.396 350.569 L 214.718 351.891 227.533 352.186 C 244.410 352.574,272.107 352.081,273.828 351.363 C 279.147 349.140,276.719 343.157,270.540 343.257 L 267.000 343.315 270.200 343.597 C 274.304 343.959,274.893 344.169,275.500 345.479 C 276.779 348.243,275.547 350.488,272.377 351.168 C 268.549 351.988,216.489 351.746,214.823 350.899 C 211.622 349.273,211.464 345.412,214.536 343.881 C 215.231 343.535,215.530 343.252,215.200 343.253 C 214.870 343.253,214.221 343.438,213.757 343.663 " stroke="none" fill="#f2948c" fill-rule="evenodd"></path><path id="path4" d="M3.298 99.000 C 3.084 297.120,3.192 393.456,3.628 394.707 C 3.889 395.457,4.506 396.113,5.235 396.415 C 6.638 396.996,392.170 397.078,394.173 396.497 C 394.818 396.310,395.698 395.686,396.127 395.110 C 396.830 394.169,397.416 14.870,396.727 7.200 C 396.658 6.430,396.511 92.696,396.401 198.901 L 396.200 392.002 200.000 392.002 L 3.800 392.002 3.599 198.701 C 3.472 75.596,3.362 39.390,3.298 99.000 M162.362 31.899 C 186.970 31.981,194.260 32.117,194.727 32.502 C 195.221 32.910,195.294 32.892,195.132 32.400 C 194.958 31.873,191.002 31.800,162.767 31.796 L 130.600 31.793 162.362 31.899 M205.061 31.900 C 204.958 32.065,205.893 32.149,207.137 32.087 C 211.044 31.892,211.515 31.722,208.324 31.660 C 206.632 31.627,205.163 31.735,205.061 31.900 M236.729 31.900 C 243.399 31.961,254.199 31.961,260.729 31.900 C 267.258 31.838,261.800 31.788,248.600 31.788 C 235.400 31.788,230.058 31.838,236.729 31.900 M308.904 32.800 C 310.835 33.835,311.388 33.834,309.690 32.799 C 308.970 32.359,308.163 32.000,307.896 32.000 C 307.630 32.000,308.084 32.360,308.904 32.800 M204.582 48.000 C 204.582 56.470,204.635 59.935,204.699 55.700 C 204.764 51.465,204.764 44.535,204.699 40.300 C 204.635 36.065,204.582 39.530,204.582 48.000 M87.206 35.394 C 86.463 36.161,85.932 36.850,86.027 36.925 C 86.122 37.000,86.806 36.373,87.546 35.531 C 89.229 33.618,89.012 33.531,87.206 35.394 M312.435 35.471 C 313.182 36.389,313.875 37.058,313.976 36.957 C 314.077 36.856,313.467 36.104,312.619 35.287 L 311.079 33.800 312.435 35.471 M314.914 41.000 C 314.917 42.100,314.995 42.503,315.087 41.895 C 315.179 41.286,315.177 40.386,315.082 39.895 C 314.987 39.403,314.911 39.900,314.914 41.000 M84.262 47.664 C 83.944 55.018,84.011 106.248,84.354 117.400 C 84.489 121.800,84.600 106.545,84.600 83.500 C 84.600 60.455,84.583 41.600,84.562 41.600 C 84.542 41.600,84.407 44.329,84.262 47.664 M315.400 89.200 C 315.400 114.610,315.514 132.970,315.653 130.000 C 315.792 127.030,315.905 108.670,315.905 89.200 C 315.905 69.730,315.792 51.370,315.653 48.400 C 315.514 45.430,315.400 63.790,315.400 89.200 M178.600 64.022 C 169.580 64.169,152.300 64.320,140.200 64.358 C 119.355 64.424,118.116 64.468,116.600 65.200 C 115.720 65.625,115.204 65.979,115.454 65.986 C 115.704 65.994,116.424 65.731,117.054 65.402 C 118.047 64.885,123.253 64.805,156.024 64.802 C 188.658 64.800,193.954 64.719,194.624 64.213 C 195.051 63.890,195.310 63.654,195.200 63.690 C 195.090 63.725,187.620 63.874,178.600 64.022 M204.933 64.200 C 205.021 64.462,217.650 64.615,241.633 64.643 C 265.927 64.672,276.723 64.566,273.800 64.327 C 271.380 64.129,262.380 64.051,253.800 64.152 C 245.220 64.253,230.685 64.216,221.500 64.068 C 210.425 63.890,204.844 63.935,204.933 64.200 M112.799 67.802 C 112.283 68.351,111.982 68.800,112.130 68.800 C 112.518 68.800,114.099 67.165,113.902 66.968 C 113.811 66.877,113.314 67.252,112.799 67.802 M119.461 72.700 C 119.359 72.865,120.203 72.949,121.338 72.886 C 125.016 72.682,125.463 72.521,122.524 72.460 C 120.942 72.427,119.564 72.535,119.461 72.700 M194.291 72.688 C 194.643 72.937,194.817 75.244,194.905 80.818 L 195.027 88.600 195.014 80.633 C 195.002 73.898,194.907 72.641,194.400 72.503 C 193.965 72.384,193.935 72.435,194.291 72.688 M281.186 73.974 C 281.460 74.485,281.624 85.691,281.672 107.074 C 281.713 125.767,281.859 136.785,282.019 133.200 C 283.004 111.030,282.366 73.200,281.006 73.200 C 280.877 73.200,280.958 73.548,281.186 73.974 M204.592 109.200 C 204.592 128.890,204.640 136.945,204.700 127.100 C 204.759 117.255,204.759 101.145,204.700 91.300 C 204.640 81.455,204.592 89.510,204.592 109.200 M117.876 75.210 C 117.730 75.755,117.630 77.010,117.654 78.000 C 117.696 79.751,117.707 79.734,118.048 77.400 C 118.420 74.852,118.318 73.557,117.876 75.210 M84.958 131.000 C 84.958 134.080,85.021 135.287,85.097 133.682 C 85.173 132.078,85.173 129.558,85.096 128.082 C 85.019 126.607,84.957 127.920,84.958 131.000 M117.647 134.033 C 117.673 137.205,117.827 140.340,117.988 141.000 C 118.149 141.660,118.193 139.140,118.086 135.400 C 117.846 127.035,117.583 126.215,117.647 134.033 M194.795 137.200 L 194.600 145.400 158.800 145.603 L 123.000 145.806 158.913 145.903 C 187.766 145.981,194.864 145.900,195.021 145.489 C 195.129 145.208,195.166 141.383,195.104 136.989 L 194.991 129.000 194.795 137.200 M86.717 140.236 C 87.589 141.510,88.751 142.634,88.910 142.357 C 88.959 142.271,88.296 141.480,87.436 140.600 C 86.130 139.264,86.012 139.204,86.717 140.236 M93.457 144.052 C 93.866 144.212,95.910 144.336,98.000 144.325 C 102.648 144.303,101.982 144.093,96.657 143.901 C 94.488 143.823,93.048 143.891,93.457 144.052 M302.600 144.000 L 299.000 144.249 302.400 144.296 C 304.270 144.322,306.160 144.189,306.600 144.000 C 307.040 143.811,307.130 143.678,306.800 143.704 C 306.470 143.730,304.580 143.863,302.600 144.000 M120.500 145.476 C 120.885 145.576,121.515 145.576,121.900 145.476 C 122.285 145.375,121.970 145.293,121.200 145.293 C 120.430 145.293,120.115 145.375,120.500 145.476 M205.142 145.702 C 205.308 145.868,221.094 145.958,240.222 145.902 L 275.000 145.800 239.920 145.600 C 220.626 145.490,204.976 145.536,205.142 145.702 M276.300 145.482 C 276.795 145.578,277.605 145.578,278.100 145.482 C 278.595 145.387,278.190 145.309,277.200 145.309 C 276.210 145.309,275.805 145.387,276.300 145.482 M107.515 166.728 C 107.138 166.878,148.538 167.000,199.515 167.000 C 250.492 167.000,291.300 166.881,290.200 166.735 C 287.551 166.384,108.399 166.377,107.515 166.728 M292.900 167.476 C 293.285 167.576,293.915 167.576,294.300 167.476 C 294.685 167.375,294.370 167.293,293.600 167.293 C 292.830 167.293,292.515 167.375,292.900 167.476 M103.067 169.467 C 102.920 169.613,102.811 170.108,102.825 170.567 C 102.849 171.333,102.882 171.323,103.234 170.442 C 103.626 169.463,103.544 168.989,103.067 169.467 M297.391 208.400 C 297.391 227.430,297.440 235.215,297.500 225.700 C 297.560 216.185,297.560 200.615,297.500 191.100 C 297.440 181.585,297.391 189.370,297.391 208.400 M102.591 211.400 C 102.591 229.880,102.640 237.382,102.700 228.070 C 102.760 218.759,102.760 203.639,102.700 194.470 C 102.640 185.302,102.591 192.920,102.591 211.400 M112.124 254.299 C 115.162 254.367,120.022 254.367,122.924 254.299 C 125.826 254.231,123.340 254.175,117.400 254.175 C 111.460 254.175,109.086 254.231,112.124 254.299 M268.526 254.300 C 272.666 254.365,279.326 254.365,283.326 254.299 C 287.327 254.234,283.940 254.181,275.800 254.181 C 267.660 254.181,264.387 254.234,268.526 254.300 M157.500 254.700 C 173.395 254.758,199.405 254.758,215.300 254.700 C 231.195 254.642,218.190 254.595,186.400 254.595 C 154.610 254.595,141.605 254.642,157.500 254.700 M144.900 276.300 C 151.225 276.362,161.575 276.362,167.900 276.300 C 174.225 276.238,169.050 276.187,156.400 276.187 C 143.750 276.187,138.575 276.238,144.900 276.300 M235.728 276.300 C 241.629 276.362,251.169 276.362,256.928 276.300 C 262.688 276.237,257.860 276.186,246.200 276.186 C 234.540 276.186,229.828 276.237,235.728 276.300 M219.600 276.800 C 219.067 277.145,219.067 277.188,219.600 277.188 C 219.930 277.188,220.470 277.013,220.800 276.800 C 221.333 276.455,221.333 276.412,220.800 276.412 C 220.470 276.412,219.930 276.587,219.600 276.800 M127.767 278.583 C 126.905 279.344,126.425 279.974,126.700 279.983 C 126.975 279.993,127.200 279.826,127.200 279.614 C 127.200 279.402,127.872 278.772,128.693 278.214 C 129.514 277.656,129.994 277.200,129.759 277.200 C 129.525 277.200,128.628 277.823,127.767 278.583 M182.539 278.400 C 183.291 279.060,184.041 279.600,184.207 279.600 C 184.605 279.600,181.893 277.215,181.486 277.206 C 181.313 277.203,181.787 277.740,182.539 278.400 M217.000 278.313 C 216.340 278.918,215.440 279.860,215.000 280.406 C 214.560 280.952,215.190 280.512,216.400 279.427 C 217.610 278.342,218.675 277.397,218.767 277.327 C 218.858 277.257,218.768 277.203,218.567 277.206 C 218.365 277.210,217.660 277.708,217.000 278.313 M273.692 281.371 C 274.186 282.126,274.643 282.690,274.708 282.626 C 274.907 282.427,273.419 280.005,273.096 280.003 C 272.929 280.001,273.197 280.617,273.692 281.371 M212.845 286.511 C 212.362 289.283,212.271 319.499,212.735 323.000 C 212.881 324.100,212.940 317.014,212.867 307.254 C 212.777 295.259,212.881 288.665,213.187 286.907 C 213.436 285.477,213.561 284.228,213.465 284.131 C 213.368 284.035,213.090 285.106,212.845 286.511 M275.111 289.737 C 275.274 297.991,275.463 298.744,275.530 291.400 C 275.562 287.880,275.456 284.792,275.294 284.537 C 275.132 284.283,275.050 286.623,275.111 289.737 M124.667 284.667 C 124.520 284.813,124.418 285.488,124.441 286.167 L 124.482 287.400 124.810 286.003 C 125.153 284.547,125.117 284.216,124.667 284.667 M186.528 286.800 C 186.528 288.230,186.601 288.815,186.689 288.100 C 186.778 287.385,186.778 286.215,186.689 285.500 C 186.601 284.785,186.528 285.370,186.528 286.800 M187.000 305.200 C 187.000 313.890,187.115 319.290,187.255 317.200 C 187.582 312.333,187.581 298.583,187.253 293.400 C 187.114 291.200,187.000 296.510,187.000 305.200 M124.178 304.800 C 124.178 311.510,124.232 314.255,124.299 310.900 C 124.366 307.545,124.366 302.055,124.299 298.700 C 124.232 295.345,124.178 298.090,124.178 304.800 M275.309 317.600 C 275.309 318.590,275.387 318.995,275.482 318.500 C 275.578 318.005,275.578 317.195,275.482 316.700 C 275.387 316.205,275.309 316.610,275.309 317.600 M186.509 322.800 C 186.509 323.790,186.587 324.195,186.682 323.700 C 186.778 323.205,186.778 322.395,186.682 321.900 C 186.587 321.405,186.509 321.810,186.509 322.800 M273.595 328.329 C 272.117 330.514,272.122 330.849,273.603 328.882 C 274.314 327.936,274.828 327.094,274.743 327.010 C 274.659 326.926,274.143 327.519,273.595 328.329 M128.400 331.897 C 128.400 332.412,131.546 333.608,132.813 333.574 C 133.383 333.558,132.883 333.301,131.629 332.964 C 130.435 332.643,129.220 332.182,128.929 331.941 C 128.611 331.677,128.400 331.660,128.400 331.897 M180.000 333.000 C 179.420 333.332,179.252 333.572,179.600 333.573 C 179.930 333.574,180.549 333.310,180.976 332.987 C 181.964 332.240,181.315 332.248,180.000 333.000 M219.518 333.028 C 220.011 333.373,220.727 333.574,221.107 333.474 C 221.633 333.337,221.589 333.282,220.924 333.246 C 220.442 333.221,219.936 333.020,219.800 332.800 C 219.664 332.580,219.343 332.400,219.087 332.400 C 218.831 332.400,219.025 332.683,219.518 333.028 M268.600 332.800 C 268.464 333.020,267.958 333.221,267.476 333.246 C 266.811 333.282,266.767 333.337,267.293 333.474 C 267.673 333.574,268.389 333.373,268.882 333.028 C 269.375 332.683,269.569 332.400,269.313 332.400 C 269.057 332.400,268.736 332.580,268.600 332.800 M137.200 342.378 C 134.890 342.500,143.350 342.600,156.000 342.600 C 168.650 342.600,176.390 342.488,173.200 342.350 C 166.230 342.050,143.075 342.068,137.200 342.378 M220.400 342.365 C 219.190 342.494,227.650 342.600,239.200 342.600 C 250.750 342.600,258.130 342.489,255.600 342.353 C 249.811 342.041,223.346 342.051,220.400 342.365 M124.431 344.031 C 123.622 344.840,123.216 345.628,123.247 346.331 L 123.295 347.400 123.547 346.400 C 123.940 344.846,124.499 344.109,125.800 343.431 C 126.521 343.055,126.733 342.804,126.331 342.802 C 125.963 342.801,125.108 343.354,124.431 344.031 M185.200 343.082 C 185.530 343.203,186.250 343.684,186.800 344.151 L 187.800 345.000 186.830 343.900 C 186.297 343.295,185.577 342.814,185.230 342.832 C 184.691 342.859,184.686 342.895,185.200 343.082 M212.831 344.031 C 212.154 344.708,211.605 345.473,211.611 345.731 C 211.616 345.989,211.926 345.708,212.299 345.107 C 212.672 344.506,213.522 343.745,214.188 343.416 C 214.901 343.065,215.124 342.814,214.731 342.809 C 214.363 342.804,213.508 343.354,212.831 344.031 M271.600 343.098 C 273.030 343.177,274.371 343.413,274.580 343.621 C 274.789 343.830,275.138 344.000,275.356 344.000 C 275.575 344.000,275.404 343.736,274.976 343.413 C 274.453 343.017,273.352 342.846,271.600 342.890 L 269.000 342.954 271.600 343.098 M187.800 347.200 C 187.800 348.258,187.935 349.040,188.100 348.938 C 188.265 348.836,188.400 348.054,188.400 347.200 C 188.400 346.346,188.265 345.564,188.100 345.462 C 187.935 345.360,187.800 346.142,187.800 347.200 M123.254 348.209 C 123.201 349.003,125.353 352.000,125.976 352.000 C 126.151 352.000,125.701 351.371,124.975 350.601 C 124.250 349.832,123.578 348.797,123.482 348.301 C 123.329 347.506,123.303 347.495,123.254 348.209 M276.454 348.430 C 276.401 349.449,275.352 350.675,273.800 351.533 C 273.360 351.777,273.228 351.981,273.506 351.988 C 274.590 352.014,276.887 349.419,276.694 348.386 L 276.509 347.400 276.454 348.430 M129.116 352.297 C 130.499 352.375,132.659 352.374,133.916 352.295 C 135.172 352.216,134.040 352.152,131.400 352.153 C 128.760 352.153,127.732 352.218,129.116 352.297 M178.700 352.295 C 179.855 352.376,181.745 352.376,182.900 352.295 C 184.055 352.214,183.110 352.148,180.800 352.148 C 178.490 352.148,177.545 352.214,178.700 352.295 M217.113 352.295 C 218.276 352.376,220.076 352.376,221.113 352.293 C 222.151 352.211,221.200 352.145,219.000 352.146 C 216.800 352.147,215.951 352.214,217.113 352.295 M267.712 352.295 C 268.764 352.377,270.384 352.376,271.312 352.292 C 272.240 352.208,271.380 352.141,269.400 352.142 C 267.420 352.143,266.660 352.212,267.712 352.295 M153.278 352.698 C 155.631 352.769,159.591 352.769,162.078 352.699 C 164.565 352.629,162.640 352.571,157.800 352.570 C 152.960 352.570,150.925 352.628,153.278 352.698 M172.700 352.689 C 173.415 352.778,174.585 352.778,175.300 352.689 C 176.015 352.601,175.430 352.528,174.000 352.528 C 172.570 352.528,171.985 352.601,172.700 352.689 M231.474 352.699 C 235.694 352.764,242.714 352.764,247.074 352.700 C 251.433 352.635,247.980 352.582,239.400 352.582 C 230.820 352.582,227.253 352.635,231.474 352.699 M393.428 392.845 C 393.579 393.089,393.454 393.446,393.151 393.638 C 392.425 394.098,7.576 394.097,6.849 393.638 C 4.917 392.417,7.601 392.400,200.000 392.400 C 341.286 392.400,393.227 392.519,393.428 392.845 " stroke="none" fill="#d6c4c4" fill-rule="evenodd"></path></g></svg>