<svg id="svg" version="1.1" xmlns="http://www.w3.org/2000/svg" xmlns:xlink="http://www.w3.org/1999/xlink" width="400" height="400" viewBox="0, 0, 400,400"><g id="svgg"><path id="path0" d="M88.852 33.737 C 86.318 34.917,83.891 37.676,83.058 40.324 C 81.920 43.943,82.284 137.757,83.446 140.269 C 85.907 145.589,88.471 146.645,99.316 146.805 L 107.813 146.930 107.816 110.477 L 107.820 74.023 108.746 72.070 C 109.898 69.641,112.098 67.501,114.648 66.328 L 116.602 65.430 155.664 65.325 L 194.727 65.220 194.620 49.016 L 194.514 32.813 142.667 32.816 L 90.820 32.820 88.852 33.737 M205.078 49.018 L 205.078 65.234 243.236 65.234 C 285.765 65.234,284.058 65.132,287.697 67.906 C 288.780 68.733,290.082 70.243,290.782 71.484 L 291.992 73.633 292.098 110.286 L 292.203 146.940 300.887 146.806 C 312.095 146.634,315.262 145.159,317.001 139.302 C 317.926 136.187,317.862 43.157,316.933 40.281 C 316.144 37.837,314.207 35.504,311.784 34.079 L 309.961 33.008 257.520 32.905 L 205.078 32.801 205.078 49.018 M118.092 74.612 C 116.375 75.304,116.389 74.974,116.498 111.273 C 116.614 150.292,116.360 147.173,119.492 148.043 C 120.384 148.290,134.375 148.434,157.715 148.435 L 194.531 148.438 194.531 111.328 L 194.531 74.219 156.738 74.244 C 135.946 74.257,118.561 74.423,118.092 74.612 M205.078 111.328 L 205.078 148.438 241.895 148.435 C 280.698 148.433,280.983 148.420,282.404 146.614 C 283.195 145.608,283.203 145.264,283.203 110.867 L 283.203 76.136 282.244 75.178 L 281.286 74.219 243.182 74.219 L 205.078 74.219 205.078 111.328 M104.030 171.072 C 100.752 172.560,100.990 169.369,100.871 213.477 C 100.747 259.828,100.538 257.765,105.469 258.970 C 108.881 259.804,294.831 259.336,296.380 258.489 C 299.194 256.952,299.012 259.819,299.128 215.234 L 299.233 175.194 298.347 173.437 C 296.606 169.985,306.944 170.313,200.195 170.322 C 108.175 170.329,105.621 170.349,104.030 171.072 M130.370 282.582 C 123.390 285.103,122.980 286.787,123.128 312.350 L 123.242 332.227 124.154 334.078 C 127.152 340.166,127.785 340.289,155.522 340.152 L 178.320 340.039 180.180 339.115 C 186.247 336.101,186.400 335.395,186.345 310.617 C 186.291 286.264,186.253 286.079,180.603 283.193 L 178.711 282.227 155.273 282.140 C 136.371 282.070,131.552 282.156,130.370 282.582 M220.463 282.663 C 218.219 283.459,215.784 285.664,214.535 288.032 L 213.477 290.039 213.477 310.742 C 213.477 331.065,213.492 331.478,214.311 333.251 C 215.507 335.836,217.659 338.045,220.023 339.113 L 222.070 340.039 245.117 340.039 C 266.159 340.039,268.295 339.980,269.663 339.361 C 272.300 338.169,274.132 336.406,275.390 333.849 L 276.589 331.415 276.478 310.305 L 276.367 289.196 275.187 287.287 C 273.810 285.060,271.294 283.013,269.228 282.440 C 266.752 281.752,222.460 281.955,220.463 282.663 M125.037 350.120 C 121.155 351.480,121.089 356.817,124.933 358.509 C 126.878 359.366,182.018 359.480,184.503 358.632 C 188.517 357.264,188.484 351.135,184.456 350.016 C 182.275 349.410,126.785 349.507,125.037 350.120 M215.006 350.160 C 211.173 351.845,211.191 356.478,215.038 358.513 C 217.071 359.589,273.021 359.480,275.195 358.396 C 278.438 356.780,278.882 352.722,276.046 350.621 C 274.633 349.575,217.322 349.141,215.006 350.160 " stroke="none" fill="#049b14" fill-rule="evenodd"></path><path id="path1" d="M0.000 200.000 L 0.000 400.000 200.000 400.000 L 400.000 400.000 400.000 200.000 L 400.000 0.000 200.000 0.000 L 0.000 0.000 0.000 200.000 M194.922 49.023 L 194.922 65.625 155.929 65.625 C 112.647 65.625,114.949 65.489,111.749 68.229 C 110.856 68.993,109.649 70.522,109.066 71.626 L 108.008 73.633 107.902 110.254 L 107.797 146.875 99.671 146.875 C 88.549 146.875,85.007 145.338,83.077 139.673 C 82.307 137.416,82.054 43.332,82.810 40.612 C 83.801 37.044,86.944 33.939,90.544 32.970 C 91.982 32.583,103.562 32.469,143.652 32.448 L 194.922 32.422 194.922 49.023 M310.993 33.520 C 313.405 34.719,315.522 36.867,316.649 39.258 L 317.570 41.211 317.570 89.844 L 317.570 138.477 316.657 140.430 C 314.120 145.854,311.610 146.866,300.684 146.871 L 292.188 146.875 292.182 117.285 C 292.174 72.004,292.220 72.645,288.696 69.112 C 284.958 65.365,288.298 65.625,243.876 65.625 L 205.078 65.625 205.078 49.016 L 205.078 32.408 257.129 32.513 L 309.180 32.617 310.993 33.520 M194.922 111.334 L 194.922 148.449 156.804 148.346 L 118.686 148.242 117.546 146.966 L 116.406 145.691 116.406 110.984 C 116.406 76.464,116.411 76.272,117.216 75.248 L 118.025 74.219 156.474 74.219 L 194.922 74.219 194.922 111.334 M282.299 75.068 L 283.203 75.917 283.203 110.932 C 283.203 145.941,283.203 145.947,282.384 146.825 C 280.893 148.426,280.607 148.438,242.357 148.438 L 205.078 148.438 205.078 111.328 L 205.078 74.219 243.237 74.219 L 281.395 74.219 282.299 75.068 M297.212 171.628 C 299.308 173.637,299.238 172.034,299.127 215.303 C 299.010 260.940,299.285 257.049,296.066 258.691 C 293.811 259.841,106.154 259.741,103.896 258.588 C 100.557 256.885,100.781 260.043,100.782 214.762 C 100.783 170.180,100.600 173.120,103.479 171.197 L 104.810 170.308 200.426 170.408 L 296.042 170.508 297.212 171.628 M179.992 282.768 C 182.736 284.008,185.363 286.942,186.148 289.644 C 187.232 293.371,186.811 331.689,185.663 333.835 C 184.341 336.305,183.069 337.625,180.794 338.885 L 178.711 340.039 155.469 340.154 C 127.308 340.294,127.231 340.279,124.264 334.341 L 123.047 331.906 123.049 311.559 C 123.051 289.852,123.095 289.292,125.009 286.510 C 128.263 281.782,128.975 281.672,155.859 281.762 L 177.930 281.836 179.992 282.768 M270.313 282.661 C 276.658 285.637,276.758 286.073,276.758 310.742 L 276.758 331.445 275.826 333.508 C 274.607 336.204,271.664 338.863,269.032 339.645 C 267.362 340.140,263.508 340.234,244.866 340.234 C 219.029 340.234,219.981 340.360,216.429 336.474 C 213.188 332.928,213.237 333.349,213.365 309.912 C 213.531 279.756,211.294 281.668,246.289 281.771 C 268.059 281.834,268.594 281.854,270.313 282.661 M185.145 350.109 C 188.514 351.814,188.592 356.311,185.290 358.475 C 183.583 359.593,126.219 359.563,124.369 358.443 C 121.000 356.404,121.255 351.450,124.805 349.982 C 126.167 349.419,184.021 349.540,185.145 350.109 M276.397 350.879 C 278.918 353.189,278.566 356.666,275.631 358.443 C 273.802 359.550,216.577 359.593,214.557 358.489 C 212.297 357.254,211.467 354.329,212.700 351.944 C 213.940 349.546,212.592 349.642,245.221 349.625 L 275.011 349.609 276.397 350.879 " stroke="none" fill="#fbfbfb" fill-rule="evenodd"></path><path id="path2" d="M137.627 65.527 C 148.117 65.585,165.168 65.585,175.518 65.527 C 185.868 65.469,177.285 65.422,156.445 65.422 C 135.605 65.422,127.137 65.469,137.627 65.527 M223.896 65.527 C 234.353 65.585,251.580 65.585,262.177 65.527 C 272.775 65.469,264.219 65.422,243.164 65.422 C 222.109 65.422,213.439 65.469,223.896 65.527 M291.895 76.758 C 291.900 77.617,291.980 77.923,292.073 77.437 C 292.167 76.951,292.163 76.248,292.065 75.874 C 291.967 75.501,291.891 75.898,291.895 76.758 M129.009 359.265 C 129.603 359.354,130.482 359.352,130.962 359.259 C 131.443 359.167,130.957 359.093,129.883 359.096 C 128.809 359.099,128.416 359.175,129.009 359.265 M219.048 359.261 C 219.533 359.354,220.237 359.351,220.610 359.253 C 220.983 359.155,220.586 359.079,219.727 359.083 C 218.867 359.087,218.562 359.167,219.048 359.261 " stroke="none" fill="#a8e1b2" fill-rule="evenodd"></path><path id="path3" d="M291.925 80.664 C 291.927 82.168,291.997 82.735,292.082 81.925 C 292.167 81.114,292.165 79.884,292.079 79.191 C 291.993 78.497,291.923 79.160,291.925 80.664 M144.266 281.933 C 150.243 281.994,159.911 281.994,165.750 281.933 C 171.590 281.873,166.699 281.823,154.883 281.823 C 143.066 281.823,138.289 281.873,144.266 281.933 M234.500 281.933 C 240.477 281.994,250.145 281.994,255.985 281.933 C 261.824 281.873,256.934 281.823,245.117 281.823 C 233.301 281.823,228.523 281.873,234.500 281.933 M276.743 311.914 C 276.743 322.012,276.793 326.199,276.855 321.218 C 276.917 316.238,276.917 307.976,276.855 302.859 C 276.793 297.742,276.743 301.816,276.743 311.914 " stroke="none" fill="#bce4c3" fill-rule="evenodd"></path><path id="path4" d="M143.453 32.714 L 194.523 32.815 194.631 48.830 L 194.740 64.844 194.733 48.731 L 194.727 32.617 143.555 32.615 L 92.383 32.613 143.453 32.714 M230.597 32.715 C 244.739 32.772,267.767 32.772,281.769 32.715 C 295.771 32.658,284.199 32.611,256.055 32.611 C 227.910 32.611,216.454 32.658,230.597 32.715 M194.719 111.328 C 194.719 131.846,194.766 140.239,194.824 129.980 C 194.882 119.722,194.882 102.935,194.824 92.676 C 194.766 82.417,194.719 90.811,194.719 111.328 M186.509 309.766 C 186.509 319.971,186.559 324.146,186.621 319.043 C 186.682 313.940,186.682 305.591,186.621 300.488 C 186.559 295.386,186.509 299.561,186.509 309.766 M133.496 359.272 C 134.624 359.351,136.470 359.351,137.598 359.272 C 138.726 359.193,137.803 359.129,135.547 359.129 C 133.291 359.129,132.368 359.193,133.496 359.272 M171.174 359.274 C 172.615 359.349,175.076 359.349,176.643 359.275 C 178.210 359.200,177.031 359.139,174.023 359.138 C 171.016 359.138,169.734 359.199,171.174 359.274 M223.518 359.274 C 224.959 359.349,227.420 359.349,228.987 359.275 C 230.554 359.200,229.375 359.139,226.367 359.138 C 223.359 359.138,222.077 359.199,223.518 359.274 M263.005 359.274 C 264.464 359.350,266.749 359.349,268.083 359.273 C 269.416 359.197,268.223 359.135,265.430 359.136 C 262.637 359.137,261.545 359.199,263.005 359.274 " stroke="none" fill="#84ce8c" fill-rule="evenodd"></path></g></svg>