<svg id="svg" version="1.1" xmlns="http://www.w3.org/2000/svg" xmlns:xlink="http://www.w3.org/1999/xlink" width="400" height="400" viewBox="0, 0, 400,400"><g id="svgg"><path id="path0" d="M92.200 33.200 C 92.064 33.420,91.680 33.600,91.348 33.600 C 90.465 33.600,86.866 37.142,86.077 38.788 C 85.192 40.634,85.142 133.086,86.024 136.352 C 86.654 138.681,88.843 141.440,90.667 142.202 C 92.240 142.860,108.177 143.956,108.691 143.443 C 108.861 143.273,109.091 126.994,109.203 107.267 C 109.391 73.900,109.455 71.312,110.114 70.135 C 111.224 68.156,113.988 65.608,116.164 64.558 L 118.150 63.600 155.775 63.594 C 176.469 63.591,193.586 63.456,193.813 63.294 C 194.090 63.097,194.175 58.009,194.070 47.900 L 193.914 32.800 143.180 32.800 C 109.790 32.800,92.363 32.937,92.200 33.200 M205.200 48.000 C 205.200 56.360,205.245 63.242,205.300 63.294 C 205.355 63.346,222.320 63.501,243.000 63.639 C 288.126 63.941,284.842 63.536,289.095 69.329 L 290.583 71.356 290.721 104.778 C 290.797 123.160,290.981 139.370,291.129 140.800 L 291.400 143.400 293.000 143.539 C 295.399 143.748,308.143 142.789,308.580 142.367 C 308.789 142.165,309.263 142.000,309.633 142.000 C 310.507 142.000,313.600 138.907,313.600 138.033 C 313.600 137.663,313.825 137.135,314.100 136.860 C 314.825 136.135,314.815 39.538,314.090 39.297 C 313.821 39.207,313.600 38.827,313.600 38.453 C 313.600 37.745,310.063 34.166,308.505 33.298 C 307.804 32.908,296.529 32.800,256.405 32.800 L 205.200 32.800 205.200 48.000 M119.470 74.100 C 118.351 74.919,118.634 142.712,119.762 143.958 L 120.524 144.800 157.262 144.800 L 194.000 144.800 194.000 109.200 L 194.000 73.600 157.076 73.600 C 128.169 73.600,120.005 73.709,119.470 74.100 M205.467 73.867 C 205.320 74.013,205.200 90.033,205.200 109.467 L 205.200 144.800 241.554 144.800 C 280.824 144.800,279.466 144.872,280.662 142.718 C 281.600 141.028,281.414 75.118,280.469 74.262 C 279.710 73.576,206.145 73.188,205.467 73.867 M112.200 167.952 C 104.307 168.258,104.561 168.117,103.793 172.614 C 103.020 177.141,103.123 245.846,103.909 249.537 C 104.853 253.976,96.304 253.605,196.767 253.567 C 291.698 253.531,295.146 253.463,295.660 251.600 C 296.697 247.843,296.800 244.009,296.800 209.109 C 296.800 169.012,296.840 169.706,294.480 168.443 C 293.616 167.981,123.310 167.522,112.200 167.952 M133.800 277.344 C 125.986 278.566,125.384 280.191,124.965 301.200 C 124.665 316.189,125.166 325.609,126.384 327.907 C 128.967 332.782,130.315 333.000,157.800 332.999 L 178.600 332.998 180.400 332.086 C 183.505 330.512,184.497 329.233,185.584 325.400 C 186.101 323.575,185.955 285.524,185.421 283.303 C 185.026 281.655,182.079 278.559,180.131 277.745 C 178.097 276.895,138.845 276.556,133.800 277.344 M225.400 277.291 C 222.760 277.488,220.204 277.730,219.719 277.827 C 218.573 278.059,214.800 281.896,214.800 282.831 C 214.800 283.228,214.620 283.664,214.400 283.800 C 214.142 283.960,214.000 291.411,214.000 304.843 L 214.000 325.638 215.365 327.772 C 218.616 332.854,218.305 332.800,244.200 332.800 C 270.095 332.800,269.784 332.854,273.035 327.772 L 274.400 325.638 274.400 304.980 C 274.400 274.995,276.141 276.744,246.400 276.865 C 237.490 276.902,228.040 277.093,225.400 277.291 M134.200 343.570 C 125.504 343.867,125.121 343.957,124.434 345.857 C 123.413 348.679,124.860 350.510,128.633 351.173 C 132.226 351.804,181.807 351.756,184.187 351.119 C 187.168 350.322,188.156 347.060,186.100 344.809 L 185.000 343.604 163.400 343.458 C 151.520 343.377,138.380 343.427,134.200 343.570 M219.200 343.569 C 213.175 343.963,211.518 345.242,212.772 348.530 C 213.935 351.578,214.153 351.600,243.588 351.600 C 267.920 351.600,271.924 351.433,274.249 350.324 C 275.342 349.803,276.340 346.980,275.668 346.308 C 275.411 346.051,275.200 345.537,275.200 345.166 C 275.200 344.630,274.566 344.402,272.100 344.051 C 268.507 343.539,225.633 343.149,219.200 343.569 " stroke="none" fill="#ecb424" fill-rule="evenodd"></path><path id="path1" d="M0.000 200.000 L 0.000 400.000 200.000 400.000 L 400.000 400.000 400.000 200.000 L 400.000 0.000 200.000 0.000 L 0.000 0.000 0.000 200.000 M200.000 392.002 L 396.200 392.002 396.401 199.101 L 396.601 6.200 396.701 199.874 C 396.766 327.438,396.664 393.905,396.403 394.593 C 395.496 396.977,410.934 396.812,199.221 396.701 L 5.222 396.600 4.311 395.689 L 3.400 394.778 3.399 200.489 L 3.397 6.200 3.599 199.101 L 3.800 392.002 200.000 392.002 M194.426 32.014 C 195.447 32.561,195.659 63.738,194.644 64.128 C 194.338 64.245,176.833 64.468,155.744 64.624 C 113.451 64.935,116.432 64.729,113.466 67.544 C 109.935 70.896,110.226 67.481,110.000 108.200 L 109.800 144.200 103.400 144.322 C 97.097 144.443,90.000 143.596,90.000 142.724 C 90.000 142.546,89.765 142.400,89.478 142.400 C 88.899 142.400,86.887 140.356,85.918 138.784 C 84.837 137.030,84.247 116.045,84.254 79.600 C 84.263 39.415,84.332 38.548,87.840 35.040 C 90.940 31.940,85.852 32.224,142.400 31.997 C 170.230 31.885,193.147 31.750,193.326 31.697 C 193.506 31.644,194.001 31.786,194.426 32.014 M309.638 33.024 C 315.854 36.948,315.712 35.656,315.742 88.600 C 315.763 128.076,315.498 137.967,314.409 138.330 C 314.184 138.405,314.000 138.639,314.000 138.850 C 314.000 142.373,307.136 144.533,296.600 144.326 L 290.200 144.200 290.098 108.289 L 289.996 72.377 288.947 70.689 C 287.601 68.522,285.278 66.324,283.331 65.374 C 281.878 64.665,279.838 64.616,243.400 64.413 L 205.000 64.200 204.895 48.130 C 204.799 33.328,204.844 32.050,205.465 31.930 C 205.836 31.859,229.074 31.853,257.105 31.917 L 308.070 32.034 309.638 33.024 M194.720 72.880 C 195.672 73.832,195.384 145.073,194.426 145.586 C 193.569 146.045,160.173 146.082,134.910 145.653 C 117.182 145.352,118.751 145.915,118.057 139.600 C 117.475 134.303,117.423 79.709,117.997 76.206 C 118.678 72.045,114.812 72.419,157.220 72.409 C 185.490 72.402,194.353 72.513,194.720 72.880 M281.020 73.697 L 282.112 74.994 281.917 109.127 L 281.722 143.260 280.761 144.220 C 279.183 145.795,272.455 146.054,236.600 145.919 L 205.000 145.800 204.897 109.600 C 204.840 89.690,204.879 73.175,204.984 72.900 C 205.135 72.505,213.019 72.400,242.552 72.400 L 279.929 72.400 281.020 73.697 M291.790 167.181 C 298.015 167.826,297.842 166.304,297.483 217.200 C 297.232 252.823,297.256 252.440,295.129 253.494 C 293.155 254.472,170.114 255.123,129.200 254.372 C 104.496 253.918,104.322 253.902,103.742 252.077 C 103.624 251.705,103.319 250.967,103.064 250.439 C 102.336 248.929,102.417 172.372,103.149 170.154 C 104.039 167.457,105.158 167.045,112.400 166.740 C 121.169 166.371,287.924 166.781,291.790 167.181 M181.147 277.272 C 186.441 280.208,187.207 283.639,187.204 304.400 C 187.201 326.109,186.530 329.312,181.308 332.551 L 179.616 333.600 156.343 333.600 C 127.799 333.600,128.366 333.704,125.452 327.934 L 124.375 325.800 124.521 305.600 C 124.675 284.374,124.800 282.776,126.513 280.197 C 127.484 278.735,128.196 278.227,131.200 276.855 C 133.808 275.664,178.926 276.041,181.147 277.272 M268.935 276.918 C 273.100 279.237,274.584 281.464,275.142 286.232 C 275.666 290.717,275.768 324.496,275.260 325.481 C 275.056 325.876,274.554 326.891,274.144 327.736 C 273.263 329.555,271.063 331.646,268.834 332.783 C 266.356 334.047,222.070 334.060,219.595 332.798 C 216.328 331.131,214.407 328.868,213.316 325.400 C 212.651 323.287,212.587 288.875,213.242 285.367 C 213.985 281.382,217.039 277.212,219.220 277.203 C 219.561 277.201,220.016 277.024,220.230 276.810 C 221.119 275.921,267.329 276.025,268.935 276.918 M186.075 343.403 C 190.556 346.726,188.185 351.684,181.879 352.175 C 171.745 352.965,126.830 352.347,125.477 351.399 C 120.617 347.995,122.961 343.155,129.666 342.750 C 141.025 342.065,184.955 342.573,186.075 343.403 M273.889 343.213 C 277.471 344.485,277.614 349.893,274.110 351.605 C 271.408 352.925,216.942 352.728,214.119 351.388 C 209.519 349.206,211.262 343.259,216.656 342.732 C 221.406 342.267,272.433 342.696,273.889 343.213 " stroke="none" fill="#fbfbfb" fill-rule="evenodd"></path><path id="path2" d="M142.320 31.997 C 102.529 32.156,91.532 32.307,91.140 32.700 C 90.865 32.975,90.820 33.200,91.040 33.200 C 91.260 33.200,91.621 33.019,91.842 32.798 C 92.107 32.533,109.570 32.431,143.422 32.498 L 194.600 32.600 194.600 48.200 L 194.600 63.800 156.333 64.000 C 135.067 64.111,117.918 64.357,117.733 64.553 C 117.382 64.925,193.665 64.503,194.644 64.128 C 195.659 63.738,195.447 32.561,194.426 32.014 C 194.001 31.786,193.506 31.644,193.326 31.697 C 193.147 31.750,170.194 31.885,142.320 31.997 M205.470 31.929 C 205.101 32.000,204.800 32.236,204.800 32.453 C 204.800 32.670,204.988 32.731,205.218 32.589 C 205.448 32.447,228.683 32.354,256.852 32.382 L 308.069 32.433 309.576 33.385 C 310.405 33.908,311.739 35.103,312.542 36.040 C 313.344 36.977,314.000 37.569,314.000 37.355 C 314.000 36.732,311.367 34.116,309.649 33.031 L 308.070 32.034 257.105 31.917 C 229.074 31.853,205.838 31.858,205.470 31.929 M87.853 35.053 C 86.834 36.072,86.000 37.102,86.000 37.342 C 86.000 37.582,86.271 37.391,86.602 36.918 C 86.933 36.446,87.956 35.415,88.874 34.629 C 89.793 33.843,90.355 33.200,90.125 33.200 C 89.894 33.200,88.872 34.034,87.853 35.053 M84.542 45.075 C 84.091 51.838,84.261 114.184,84.755 123.400 L 85.142 130.600 84.969 121.400 C 84.433 92.786,84.348 66.852,84.748 54.229 C 85.208 39.720,85.130 36.256,84.542 45.075 M315.149 49.600 C 315.475 62.316,315.474 117.800,315.148 128.400 C 314.943 135.047,314.972 135.918,315.302 133.000 C 315.837 128.262,315.829 49.698,315.293 44.000 C 314.981 40.683,314.950 41.860,315.149 49.600 M204.832 63.513 C 204.779 64.363,204.537 64.357,243.600 64.480 C 264.390 64.546,280.230 64.486,278.800 64.347 C 277.370 64.207,260.240 64.072,240.733 64.047 C 212.769 64.010,205.224 63.894,205.065 63.500 C 204.907 63.108,204.856 63.111,204.832 63.513 M115.400 65.555 C 113.797 66.559,111.060 69.534,110.482 70.900 C 109.800 72.513,110.259 72.241,111.158 70.500 C 112.046 68.780,114.444 66.384,116.200 65.462 C 116.860 65.115,117.220 64.825,117.000 64.818 C 116.780 64.810,116.060 65.141,115.400 65.555 M283.595 65.505 C 285.332 66.360,288.095 69.050,288.965 70.732 C 289.325 71.429,289.712 72.000,289.824 72.000 C 290.085 72.000,289.316 70.527,288.296 69.072 C 287.252 67.582,283.704 64.798,282.864 64.809 C 282.499 64.814,282.828 65.127,283.595 65.505 M119.300 73.070 C 118.805 73.415,118.403 73.901,118.406 74.149 C 118.409 74.397,118.578 74.338,118.781 74.018 C 119.432 72.988,124.166 72.850,159.653 72.825 L 194.307 72.800 194.548 73.700 C 194.681 74.195,194.792 90.389,194.795 109.686 L 194.800 144.772 193.905 145.251 C 193.221 145.617,184.470 145.684,156.805 145.537 C 136.892 145.431,127.080 145.467,135.000 145.618 C 158.816 146.070,193.556 146.052,194.426 145.586 C 195.384 145.073,195.672 73.832,194.720 72.880 C 193.897 72.057,120.488 72.241,119.300 73.070 M204.984 72.827 C 204.839 73.061,204.828 73.361,204.960 73.493 C 205.092 73.625,205.200 73.523,205.200 73.267 C 205.200 72.914,214.357 72.800,242.538 72.800 L 279.876 72.800 280.638 73.642 C 281.367 74.448,281.409 75.659,281.605 101.942 L 281.811 129.400 281.905 102.131 L 282.000 74.861 280.964 73.631 L 279.929 72.400 242.588 72.400 C 216.573 72.400,205.167 72.529,204.984 72.827 M109.698 108.337 L 109.600 144.075 102.100 143.869 C 97.975 143.756,93.970 143.567,93.200 143.450 C 92.375 143.323,92.622 143.459,93.800 143.779 C 96.520 144.519,109.542 144.617,109.816 143.900 C 109.921 143.625,109.959 127.470,109.901 108.000 L 109.796 72.600 109.698 108.337 M117.859 76.900 C 117.525 79.681,117.594 136.029,117.935 138.600 C 118.081 139.700,118.200 125.795,118.200 107.700 C 118.200 89.605,118.180 74.800,118.156 74.800 C 118.131 74.800,117.998 75.745,117.859 76.900 M290.109 78.800 C 290.109 79.790,290.187 80.195,290.282 79.700 C 290.378 79.205,290.378 78.395,290.282 77.900 C 290.187 77.405,290.109 77.810,290.109 78.800 M290.195 113.600 L 290.200 144.200 297.000 144.294 C 301.858 144.362,304.428 144.226,306.000 143.819 L 308.200 143.249 306.200 143.525 C 305.100 143.676,301.140 143.800,297.400 143.800 L 290.600 143.800 290.395 113.400 L 290.190 83.000 290.195 113.600 M85.234 136.714 C 85.182 138.114,88.270 142.400,89.332 142.400 C 89.539 142.400,89.246 142.037,88.683 141.593 C 87.507 140.669,86.080 138.494,85.598 136.894 C 85.300 135.904,85.265 135.887,85.234 136.714 M281.183 141.800 C 281.017 143.612,280.868 143.866,279.600 144.499 C 278.548 145.025,278.407 145.199,279.030 145.199 C 280.530 145.201,281.669 143.521,281.508 141.547 L 281.366 139.800 281.183 141.800 M310.600 142.017 C 309.500 142.664,308.829 143.195,309.108 143.197 C 309.650 143.200,312.800 141.322,312.800 140.995 C 312.800 140.721,312.817 140.713,310.600 142.017 M118.446 143.038 C 118.421 143.499,118.805 144.219,119.300 144.638 C 120.193 145.394,120.195 145.393,119.541 144.600 C 119.179 144.160,118.795 143.440,118.688 143.000 C 118.500 142.231,118.491 142.232,118.446 143.038 M204.903 145.310 C 205.093 145.879,265.869 146.227,273.200 145.701 C 275.510 145.536,261.594 145.459,242.276 145.531 C 218.431 145.619,206.765 145.526,205.946 145.241 C 205.024 144.920,204.779 144.936,204.903 145.310 M112.333 166.739 C 108.886 166.883,105.917 167.149,105.735 167.331 C 105.554 167.513,106.574 167.513,108.002 167.331 C 110.693 166.988,278.687 166.976,288.600 167.318 C 292.208 167.442,293.275 167.403,291.600 167.206 C 288.325 166.823,120.823 166.386,112.333 166.739 M104.395 168.113 C 103.375 168.934,102.797 170.737,102.855 172.919 L 102.909 175.000 103.196 172.478 C 103.378 170.872,103.799 169.528,104.353 168.778 C 105.304 167.491,105.312 167.374,104.395 168.113 M295.538 168.452 C 295.834 168.834,296.321 169.834,296.620 170.674 C 297.077 171.955,297.168 172.037,297.182 171.185 C 297.192 170.618,296.715 169.637,296.100 168.963 C 295.495 168.299,295.242 168.069,295.538 168.452 M297.389 204.600 C 297.389 220.000,297.439 226.242,297.500 218.471 C 297.561 210.700,297.561 198.100,297.500 190.471 C 297.439 182.842,297.389 189.200,297.389 204.600 M102.589 214.800 C 102.589 229.870,102.639 236.035,102.700 228.500 C 102.761 220.965,102.761 208.635,102.700 201.100 C 102.639 193.565,102.589 199.730,102.589 214.800 M296.869 248.000 C 296.825 248.990,296.689 250.250,296.567 250.800 C 296.377 251.655,296.410 251.698,296.793 251.098 C 297.040 250.712,297.176 249.452,297.095 248.298 L 296.948 246.200 296.869 248.000 M102.800 248.510 C 102.800 249.523,102.958 250.450,103.150 250.569 C 103.472 250.768,103.279 247.210,102.947 246.833 C 102.866 246.742,102.800 247.496,102.800 248.510 M103.625 251.671 C 103.582 252.820,105.525 254.006,107.354 253.947 L 109.000 253.893 107.200 253.636 C 105.051 253.329,104.458 253.000,103.997 251.859 C 103.739 251.218,103.644 251.170,103.625 251.671 M296.000 252.291 C 296.000 253.079,294.616 253.374,289.800 253.612 L 285.000 253.849 289.800 253.915 C 294.524 253.981,297.351 253.217,296.294 252.161 C 296.132 251.999,296.000 252.057,296.000 252.291 M132.600 254.443 C 150.038 254.755,204.402 254.755,237.600 254.443 C 253.691 254.291,236.229 254.200,191.200 254.200 C 151.490 254.200,125.120 254.310,132.600 254.443 M151.123 276.299 C 153.831 276.368,158.151 276.368,160.723 276.299 C 163.295 276.229,161.080 276.172,155.800 276.173 C 150.520 276.173,148.415 276.230,151.123 276.299 M239.676 276.299 C 242.468 276.367,247.148 276.368,250.076 276.299 C 253.004 276.231,250.720 276.175,245.000 276.174 C 239.280 276.174,236.884 276.230,239.676 276.299 M131.437 276.740 C 131.322 276.927,132.166 277.003,133.313 276.908 C 136.307 276.662,136.555 276.468,133.924 276.432 C 132.672 276.414,131.553 276.553,131.437 276.740 M174.400 276.788 C 177.370 276.916,180.160 277.182,180.600 277.381 C 183.131 278.521,185.412 281.200,186.018 283.743 C 186.316 284.991,186.318 284.992,186.359 283.892 C 186.433 281.885,184.058 278.887,181.088 277.239 C 179.741 276.492,178.997 276.409,174.288 276.478 L 169.000 276.556 174.400 276.788 M220.261 276.700 C 220.159 276.865,221.724 276.949,223.738 276.887 C 229.362 276.712,229.879 276.526,224.924 276.460 C 222.462 276.427,220.364 276.535,220.261 276.700 M264.833 276.547 C 265.210 276.879,268.768 277.072,268.569 276.750 C 268.450 276.558,267.523 276.400,266.510 276.400 C 265.496 276.400,264.742 276.466,264.833 276.547 M128.655 277.991 C 127.020 279.037,125.191 281.952,125.262 283.400 L 125.320 284.600 125.492 283.441 C 125.823 281.217,128.223 278.307,130.400 277.489 C 130.933 277.288,130.933 277.263,130.400 277.261 C 130.070 277.260,129.285 277.588,128.655 277.991 M216.707 278.828 C 214.760 280.496,213.364 282.774,213.730 283.685 C 213.858 284.003,213.949 283.924,213.968 283.479 C 214.031 282.046,217.423 278.163,219.200 277.490 C 219.733 277.288,219.733 277.260,219.200 277.234 C 218.870 277.218,217.748 277.935,216.707 278.828 M272.027 279.406 C 273.329 280.919,274.253 282.414,274.508 283.417 C 274.677 284.083,274.714 284.094,274.754 283.492 C 274.811 282.611,273.221 280.065,271.952 279.006 C 271.059 278.261,271.063 278.286,272.027 279.406 M124.656 285.684 C 124.521 286.188,124.435 288.040,124.464 289.800 L 124.516 293.000 124.821 289.000 C 125.132 284.910,125.090 284.064,124.656 285.684 M213.057 286.300 C 212.720 288.335,212.786 324.024,213.128 324.885 C 213.278 325.262,213.400 316.397,213.400 305.185 C 213.400 293.973,213.379 284.800,213.352 284.800 C 213.326 284.800,213.193 285.475,213.057 286.300 M274.966 305.060 C 274.985 316.312,275.141 325.433,275.313 325.328 C 275.694 325.095,275.600 289.894,275.210 286.800 C 275.058 285.590,274.948 293.807,274.966 305.060 M186.600 304.800 C 186.600 314.590,186.716 320.980,186.858 319.000 C 187.184 314.447,187.177 293.982,186.848 290.000 C 186.711 288.350,186.600 295.010,186.600 304.800 M124.476 321.025 C 124.405 325.512,125.371 329.962,126.230 329.104 C 126.325 329.008,126.088 328.316,125.702 327.565 C 125.192 326.573,124.939 324.832,124.776 321.200 L 124.553 316.200 124.476 321.025 M186.060 325.467 C 186.027 325.944,185.884 326.664,185.741 327.067 C 185.542 327.631,185.595 327.696,185.972 327.349 C 186.242 327.101,186.385 326.381,186.291 325.749 C 186.170 324.939,186.102 324.856,186.060 325.467 M274.054 327.223 C 273.755 327.899,272.588 329.385,271.462 330.526 C 269.548 332.464,269.765 332.505,271.948 330.619 C 273.106 329.618,274.893 326.880,274.723 326.368 C 274.654 326.162,274.353 326.547,274.054 327.223 M213.600 326.608 C 213.600 327.084,215.575 329.861,216.452 330.619 C 218.498 332.387,218.905 332.486,217.150 330.789 C 216.133 329.805,215.003 328.415,214.640 327.700 C 214.042 326.524,213.600 326.059,213.600 326.608 M184.507 329.405 C 183.000 331.703,180.329 332.964,176.400 333.231 L 173.000 333.462 176.400 333.519 C 179.708 333.574,179.859 333.535,181.971 332.088 C 184.033 330.674,185.952 328.619,185.568 328.235 C 185.471 328.137,184.993 328.664,184.507 329.405 M126.871 330.337 C 127.562 331.324,129.151 332.582,129.396 332.337 C 129.476 332.257,128.793 331.564,127.878 330.796 C 126.673 329.785,126.396 329.658,126.871 330.337 M131.200 332.966 C 132.068 333.322,133.891 333.526,136.000 333.505 L 139.400 333.471 135.800 333.202 C 133.820 333.055,131.660 332.812,131.000 332.663 C 129.920 332.420,129.940 332.450,131.200 332.966 M220.000 332.958 C 221.509 333.884,266.891 333.884,268.400 332.958 C 268.950 332.621,269.040 332.492,268.600 332.672 C 267.555 333.100,220.845 333.100,219.800 332.672 C 219.360 332.492,219.450 332.621,220.000 332.958 M129.666 342.772 C 125.620 342.995,125.506 343.028,124.366 344.306 C 121.987 346.972,123.863 352.029,127.200 351.951 C 128.082 351.931,128.048 351.884,126.914 351.556 C 122.760 350.355,122.773 343.413,126.931 343.144 C 127.409 343.113,139.140 342.968,153.000 342.822 L 178.200 342.557 156.000 342.551 C 143.790 342.547,131.940 342.647,129.666 342.772 M228.900 342.700 C 234.345 342.763,243.255 342.763,248.700 342.700 C 254.145 342.637,249.690 342.585,238.800 342.585 C 227.910 342.585,223.455 342.637,228.900 342.700 M181.877 343.098 C 187.997 343.317,190.208 348.785,185.194 351.299 C 184.152 351.822,184.008 351.999,184.625 351.999 C 186.831 352.001,188.927 347.780,187.802 345.604 C 186.527 343.138,185.818 342.819,181.800 342.896 L 178.200 342.966 181.877 343.098 M212.947 344.228 C 211.056 346.234,211.542 351.200,213.630 351.200 C 213.872 351.200,213.605 350.646,213.036 349.969 C 210.474 346.925,212.510 343.387,217.000 343.081 L 219.000 342.944 216.647 342.872 C 214.428 342.804,214.218 342.881,212.947 344.228 M266.400 343.179 C 271.321 343.326,274.101 343.572,274.700 343.914 C 275.195 344.197,275.600 344.323,275.600 344.194 C 275.600 343.231,272.453 342.804,265.913 342.879 L 259.000 342.958 266.400 343.179 M275.978 345.474 C 277.194 347.991,275.625 350.877,272.681 351.537 C 271.234 351.862,271.167 351.918,272.200 351.943 C 275.487 352.022,278.077 347.747,276.178 345.376 C 275.577 344.626,275.570 344.630,275.978 345.474 M130.705 352.283 C 131.202 352.379,131.922 352.375,132.305 352.275 C 132.687 352.175,132.280 352.096,131.400 352.101 C 130.520 352.105,130.207 352.187,130.705 352.283 M154.000 352.387 C 165.550 352.504,176.440 352.495,178.200 352.366 C 179.960 352.238,170.510 352.142,157.200 352.153 L 133.000 352.173 154.000 352.387 M221.600 352.370 C 223.690 352.497,235.030 352.504,246.800 352.387 L 268.200 352.174 243.000 352.157 C 229.140 352.148,219.510 352.244,221.600 352.370 " stroke="none" fill="#d7ceae" fill-rule="evenodd"></path><path id="path3" d="M205.371 32.520 C 204.741 32.873,204.498 62.505,205.117 63.479 C 205.349 63.844,214.395 63.996,243.011 64.117 C 266.547 64.216,281.232 64.428,282.291 64.683 C 285.587 65.475,289.489 69.638,290.028 72.938 L 290.300 74.600 290.350 72.854 C 290.440 69.707,285.929 64.798,282.395 64.196 C 281.408 64.028,263.680 63.778,243.000 63.639 C 222.320 63.501,205.355 63.346,205.300 63.294 C 205.245 63.242,205.200 56.360,205.200 48.000 L 205.200 32.800 256.405 32.800 C 296.529 32.800,307.804 32.908,308.505 33.298 C 310.063 34.166,313.600 37.745,313.600 38.453 C 313.600 38.827,313.821 39.207,314.090 39.297 C 314.815 39.538,314.825 136.135,314.100 136.860 C 313.825 137.135,313.600 137.663,313.600 138.033 C 313.600 138.907,310.507 142.000,309.633 142.000 C 309.263 142.000,308.789 142.162,308.580 142.359 C 307.651 143.238,291.852 143.916,291.324 143.100 C 291.146 142.825,290.904 129.370,290.786 113.200 L 290.571 83.800 290.586 113.800 L 290.600 143.800 296.200 143.928 C 306.918 144.172,311.562 142.841,313.701 138.911 L 314.774 136.939 315.185 123.370 C 316.054 94.697,315.416 40.751,314.180 38.362 C 313.300 36.660,311.235 34.432,309.552 33.370 L 308.070 32.434 257.006 32.317 C 228.921 32.253,205.686 32.344,205.371 32.520 M90.800 33.263 C 85.536 36.303,85.294 37.080,84.812 52.467 C 84.151 73.608,84.734 133.221,85.638 136.838 C 86.992 142.257,91.240 143.977,103.300 143.992 L 109.600 144.000 109.600 108.608 C 109.600 68.698,109.390 71.412,112.758 67.852 C 116.491 63.905,112.834 64.228,156.400 64.000 L 194.600 63.800 194.600 48.200 L 194.600 32.600 143.400 32.528 C 92.684 32.456,92.187 32.463,90.800 33.263 M194.070 47.900 C 194.175 58.009,194.090 63.097,193.813 63.294 C 193.586 63.456,176.469 63.591,155.775 63.594 L 118.150 63.600 116.164 64.558 C 113.988 65.608,111.224 68.156,110.114 70.135 C 109.455 71.312,109.391 73.900,109.203 107.267 C 109.091 126.994,108.861 143.273,108.691 143.443 C 108.177 143.956,92.240 142.860,90.667 142.202 C 88.843 141.440,86.654 138.681,86.024 136.352 C 85.142 133.086,85.192 40.634,86.077 38.788 C 86.866 37.142,90.465 33.600,91.348 33.600 C 91.680 33.600,92.064 33.420,92.200 33.200 C 92.363 32.937,109.790 32.800,143.180 32.800 L 193.914 32.800 194.070 47.900 M121.733 73.161 C 120.376 73.292,119.118 73.548,118.937 73.729 C 117.342 75.326,117.789 142.767,119.406 144.383 C 120.392 145.370,192.122 146.205,193.905 145.251 L 194.800 144.772 194.795 109.686 C 194.792 90.389,194.681 74.195,194.548 73.700 L 194.307 72.800 159.253 72.861 C 139.974 72.895,123.090 73.030,121.733 73.161 M205.043 73.433 C 204.909 73.781,204.800 89.985,204.800 109.443 L 204.800 144.820 205.900 145.241 C 206.649 145.527,218.288 145.620,242.400 145.531 C 281.757 145.385,280.821 145.451,281.109 142.800 L 281.217 141.800 280.685 142.718 C 279.435 144.874,280.823 144.800,241.552 144.800 L 205.196 144.800 205.298 109.300 L 205.400 73.800 242.566 73.698 C 276.676 73.604,279.793 73.650,280.464 74.258 C 281.159 74.887,281.200 76.521,281.300 107.560 L 281.405 140.200 281.502 107.554 C 281.600 75.059,281.596 74.903,280.771 73.854 L 279.942 72.800 242.614 72.800 C 208.944 72.800,205.262 72.862,205.043 73.433 M194.000 109.200 L 194.000 144.800 157.262 144.800 L 120.524 144.800 119.762 143.958 C 118.634 142.712,118.351 74.919,119.470 74.100 C 120.005 73.709,128.169 73.600,157.076 73.600 L 194.000 73.600 194.000 109.200 M290.493 78.800 C 290.493 79.570,290.575 79.885,290.676 79.500 C 290.776 79.115,290.776 78.485,290.676 78.100 C 290.575 77.715,290.493 78.030,290.493 78.800 M290.101 81.800 C 290.105 82.680,290.187 82.993,290.283 82.495 C 290.379 81.998,290.375 81.278,290.275 80.895 C 290.175 80.513,290.096 80.920,290.101 81.800 M112.339 167.186 C 104.079 167.497,103.734 167.705,103.218 172.688 C 102.878 175.981,103.406 175.376,103.942 171.859 C 104.543 167.917,103.747 168.135,118.784 167.787 C 137.491 167.354,293.550 167.945,294.499 168.453 C 296.824 169.697,296.791 169.150,296.898 208.533 L 296.996 244.600 297.100 208.651 C 297.209 170.976,297.192 170.566,295.421 168.506 L 294.469 167.400 255.735 167.138 C 208.096 166.817,121.377 166.845,112.339 167.186 M103.003 213.200 C 103.034 252.367,103.000 251.726,105.163 253.144 C 107.401 254.610,291.836 254.661,294.902 253.196 C 296.167 252.592,296.927 250.438,296.710 248.073 C 296.579 246.640,296.567 246.654,296.276 248.600 C 295.636 252.876,296.140 252.539,289.592 253.067 C 281.435 253.725,110.722 253.799,107.470 253.146 C 103.301 252.308,103.503 254.250,103.215 212.200 L 102.974 177.000 103.003 213.200 M133.800 276.776 C 129.155 277.406,125.548 280.280,125.622 283.292 C 125.639 283.961,125.823 283.760,126.323 282.531 C 128.586 276.962,130.874 276.571,159.167 276.907 C 175.453 277.100,178.921 277.240,180.152 277.754 C 182.082 278.561,185.027 281.662,185.421 283.303 C 185.955 285.524,186.101 323.575,185.584 325.400 C 184.185 330.333,181.890 332.319,177.000 332.828 L 174.600 333.078 177.000 333.135 C 181.308 333.238,185.012 330.288,185.959 326.000 C 186.565 323.251,186.903 302.097,186.498 292.153 C 186.055 281.261,185.310 279.498,180.200 277.244 C 178.797 276.625,137.950 276.213,133.800 276.776 M224.800 276.797 C 219.686 277.082,219.203 277.218,217.200 278.935 C 213.285 282.292,213.078 283.825,213.273 308.000 L 213.417 325.800 214.735 327.887 C 216.084 330.024,218.131 331.860,220.119 332.718 C 221.988 333.523,266.630 333.397,268.585 332.580 C 275.237 329.801,275.954 325.068,274.859 291.200 L 274.594 283.000 273.392 281.216 C 271.635 278.607,269.460 277.234,266.381 276.789 C 263.552 276.380,232.164 276.386,224.800 276.797 M265.942 277.266 C 269.122 277.710,269.373 277.821,271.155 279.566 C 274.565 282.907,274.400 281.614,274.400 304.980 L 274.400 325.638 273.035 327.772 C 269.784 332.854,270.095 332.800,244.200 332.800 C 218.305 332.800,218.616 332.854,215.365 327.772 L 214.000 325.638 214.000 304.843 C 214.000 291.411,214.142 283.960,214.400 283.800 C 214.620 283.664,214.800 283.228,214.800 282.831 C 214.800 281.896,218.573 278.059,219.719 277.827 C 224.439 276.874,260.039 276.441,265.942 277.266 M124.991 287.000 C 124.776 288.540,124.620 297.810,124.644 307.600 L 124.689 325.400 125.742 327.669 C 127.566 331.598,130.656 333.261,135.931 333.154 C 138.483 333.101,138.377 333.067,133.516 332.373 C 127.184 331.470,125.635 329.250,125.164 320.400 C 124.703 311.750,124.740 294.571,125.227 290.952 C 125.462 289.206,125.593 286.972,125.519 285.988 C 125.389 284.283,125.365 284.330,124.991 287.000 M147.727 333.500 C 152.527 333.564,160.267 333.563,164.927 333.499 C 169.587 333.436,165.660 333.383,156.200 333.383 C 146.740 333.383,142.927 333.436,147.727 333.500 M129.916 343.077 C 126.214 343.222,125.976 343.285,124.816 344.445 C 122.522 346.740,123.780 350.657,127.108 351.581 C 130.020 352.390,183.537 352.130,185.194 351.299 C 187.854 349.965,188.456 346.570,186.433 344.306 L 185.266 343.000 159.533 342.963 C 145.380 342.942,132.052 342.994,129.916 343.077 M217.000 343.050 C 211.342 343.522,209.996 349.335,215.054 351.448 C 216.752 352.158,269.112 352.268,272.371 351.569 C 276.877 350.603,277.950 345.063,273.912 343.617 C 272.625 343.156,221.794 342.650,217.000 343.050 M186.100 344.809 C 188.156 347.060,187.168 350.322,184.187 351.119 C 179.423 352.393,127.372 351.642,125.581 350.273 C 123.713 348.845,123.835 344.874,125.770 344.143 C 127.291 343.569,141.570 343.309,163.400 343.458 L 185.000 343.604 186.100 344.809 M272.100 344.051 C 274.566 344.402,275.200 344.630,275.200 345.166 C 275.200 345.537,275.411 346.051,275.668 346.308 C 276.340 346.980,275.342 349.803,274.249 350.324 C 270.088 352.309,215.773 352.230,213.779 350.236 C 212.085 348.542,212.313 344.830,214.153 344.155 C 216.732 343.208,265.562 343.120,272.100 344.051 " stroke="none" fill="#edcc6e" fill-rule="evenodd"></path><path id="path4" d="M3.399 200.489 L 3.400 394.778 4.311 395.689 L 5.222 396.600 199.221 396.701 C 410.934 396.812,395.496 396.977,396.403 394.593 C 396.664 393.905,396.766 327.438,396.701 199.874 L 396.601 6.200 396.401 199.101 L 396.200 392.002 200.000 392.002 L 3.800 392.002 3.599 199.101 L 3.397 6.200 3.399 200.489 " stroke="none" fill="#c7c7c7" fill-rule="evenodd"></path></g></svg>